<svg xmlns="http://www.w3.org/2000/svg" xmlns:xlink="http://www.w3.org/1999/xlink" viewBox="0 0 400 400">
  <g fill-rule="evenodd">
    <path fill="#edf0f2" d="M194.932 73.131c-3.558 1.029-6.566 1.969-6.685 2.089-.119.119 2.385 3.178 5.564 6.798 3.179 3.62 5.783 6.795 5.785 7.055.004.525-.195.598-4.196 1.531-1.54.359-3.038.729-3.33.823-.507.164 2.477 3.879 7.53 9.373l2.023 2.2-.112-3.6-.111-3.6 4.321-1.054c5.208-1.271 5.102-1.182 3.622-3.046-.655-.825-2.08-2.643-3.167-4.039-1.087-1.397-2.921-3.715-4.076-5.151-2.708-3.367-3.073-2.925 4.4-5.325 7.143-2.295 7.257-2.489 1.758-3.002-2.85-.266-3.267-.419-4.487-1.638-1.638-1.639-1.008-1.681-8.839.586M174.8 81.815c-2.72.484-4.453.94-12.8 3.373-5.574 1.624-14.89 5.659-20.767 8.993-1.763 1.001-3.311 1.819-3.441 1.819-.13 0-2.341 1.381-4.914 3.069C116.464 109.835 97.993 129.056 102 131.2c1.188.636 1.992.041 5.282-3.906 5.392-6.469 9.948-11.123 15.518-15.849 5.548-4.708 11.963-9.445 12.79-9.445.226 0 .41-.15.41-.332 0-.183.495-.58 1.1-.883.605-.303 1.37-.761 1.7-1.019 5.013-3.91 25.268-12.023 33.8-13.537 1.76-.313 4.01-.757 5-.989.99-.231 2.565-.425 3.5-.43 2.04-.012 2.047-.046.4-2.03-1.474-1.775-1.841-1.828-6.7-.965m43.859.474c-3.625 1.193-3.479 1.404 1.438 2.068 1.924.26 5.57 1.014 8.104 1.677 4.869 1.273 5.675 1.238 9.999-.437 1.012-.392.041-.821-5.2-2.293-7.962-2.236-10.159-2.392-14.341-1.015m40.141 2.899c-5.609 1.545-19.239 5.625-20.481 6.132l-1.313.536 1.837.463c1.969.495 4.542-.097 17.957-4.138 2.75-.828 5.855-1.693 6.9-1.922 2.304-.506 2.376-.79.354-1.396-1.901-.569-2.036-.561-5.254.325m-90.691 5.152c-1.272.371-2.509 1.533-2.509 2.356-.001.387-.451 2.594-1.001 4.904-1.78 7.47-2.555 10.965-2.808 12.663-.349 2.335-.849 2.848-4.008 4.116-5.098 2.045-5.667 1.942-8.979-1.631-1.192-1.285-6.023-5.148-6.44-5.148-.233 0-1.626.701-3.094 1.559-1.469.857-3.556 2.029-4.638 2.604-5.134 2.729-5.099 2.631-3.384 9.237 2.453 9.456 2.676 8.084-1.878 11.6-2.878 2.222-8.786 7.693-10.29 9.529-2.17 2.648-2.855 2.573-15.945-1.757-2.054-.679-2.403-.441-4.836 3.304-6.427 9.89-6.433 9.248.151 15.629l5.268 5.104-.691 1.696c-1.453 3.566-3.361 9.393-3.829 11.695-.723 3.558-.921 3.8-3.112 3.802-1.037.002-2.966.192-4.286.423-1.32.232-4.333.747-6.696 1.146-6.095 1.028-5.532-.593-5.409 15.582L79.8 212.6l4.329.861c2.38.474 6.43 1.064 9 1.311 5.434.523 5.328.444 6.285 4.759.375 1.688 1.47 5.339 2.433 8.113 2.262 6.508 2.497 5.654-3.143 11.405-6.581 6.712-6.424 6.153-3.175 11.262 5.491 8.635 5.191 8.437 10.095 6.692 4.208-1.497 9.855-3.572 10.777-3.96.417-.175 3.163 2.265 8.95 7.952l8.349 8.205-.839 2.7c-2.86 9.191-3.259 12.494-1.671 13.83 2.102 1.769 10.905 6.77 11.917 6.77 3.021 0 10.278-9.342 11.108-14.3.264-1.574.69-3.362 3.604-15.102 1.73-6.971 1.755-6.845-1.484-7.467-26.99-5.178-46.986-19.998-44.426-32.925.364-1.838.297-2.463-.52-4.906-4.336-12.962-3.823-32.615 1.147-43.996 1.146-2.622 1.218-3.073 1.11-6.939-.259-9.308 1.983-13.31 13.554-24.191 8.49-7.983 16.296-12.851 28-17.461 2.31-.91 4.546-1.792 4.968-1.96.782-.311.833-.493 4.488-15.853.575-2.42 1.357-5.84 1.736-7.6 1.685-7.819 1.234-7.386 7.708-7.394 5.349-.006 5.675-.126 4.174-1.536-.948-.891-7.72-1.244-10.165-.53m52.291-.16c0 .893 1.419 2.22 2.373 2.22 1.924 0 5.553-1.252 4.627-1.596-1.093-.406-7-.933-7-.624m45.087 10.741-1.008 1.322 2.861 1.967c8.236 5.665 18.081 14.763 25.375 23.451 3.543 4.221 5.685 4.896 5.685 1.794 0-2.967-16.107-19.194-25.627-25.817-.975-.678-2.673-1.862-3.773-2.63-2.44-1.703-2.283-1.699-3.513-.087m-86.594 5.253c-.128.205-.628 2.275-1.113 4.6-.486 2.324-1.902 8.816-3.147 14.426-1.246 5.61-2.538 11.55-2.871 13.2-.333 1.65-1.048 4.98-1.588 7.4-.541 2.42-1.331 6.02-1.757 8-.427 1.98-1.148 5.234-1.605 7.231-.456 1.998-1.083 4.968-1.392 6.6-.59 3.111-1.823 8.893-3.618 16.969-.587 2.64-1.578 7.23-2.203 10.2-1.988 9.452-5.974 27.689-6.754 30.9l-.753 3.1h13.887c7.638 0 13.987.099 14.109.221.377.378-1.037 6.101-7.556 30.579-1.436 5.39-2.942 11.06-3.348 12.6-.405 1.54-1.121 4.24-1.59 6-.469 1.76-1.273 4.82-1.786 6.8-2.012 7.757-3.153 11.947-5.651 20.747-1.428 5.031-2.526 9.217-2.44 9.303.086.086 1.427-1.69 2.981-3.947 1.553-2.257 3.967-5.656 5.363-7.555 3.848-5.231 8.126-11.173 19.258-26.748 5.582-7.81 12.435-17.35 15.228-21.2 2.793-3.85 6.16-8.53 7.481-10.4 1.322-1.87 4.831-6.73 7.799-10.8 6.002-8.23 14.573-20.362 14.573-20.628 0-.095-5.869-.172-13.043-.172-11.474 0-13.015-.073-12.811-.605.128-.332 6.451-9.872 14.051-21.2l13.819-20.595h-14.384c-7.912 0-14.466-.135-14.566-.3-.1-.165 1.243-2.46 2.983-5.1 1.74-2.64 5.177-7.95 7.638-11.8 4.538-7.099 13.761-21.364 20.173-31.2 8.221-12.612 10.63-16.444 10.45-16.623-.377-.378-65.584-.38-65.817-.003m55.406 12.098c-6.35 9.585-11.053 16.771-16.912 25.842-1.533 2.373-3.597 5.56-4.587 7.083-.99 1.523-3.5 5.431-5.579 8.686-5.709 8.94-7.986 12.031-8.008 10.872-.02-1.001 5.351-10.383 11.464-20.027 2.048-3.229 3.723-5.965 3.723-6.08 0-.114.521-.982 1.157-1.928.637-.946 1.556-2.486 2.042-3.422.486-.936 1.049-1.804 1.25-1.928.201-.125.816-1.114 1.365-2.198.55-1.085 1.173-1.972 1.385-1.972.212 0 .507-.495.655-1.1.148-.605.388-1.19.534-1.3.376-.284 2.532-3.593 3.188-4.893.304-.602.901-1.468 1.328-1.927.427-.458.672-.938.543-1.066-.128-.128.092-.521.488-.873.737-.656 1.442-2.004 1.329-2.541-.035-.165.128-.3.363-.3.251 0 .323-.371.174-.9-.2-.71-.163-.773.173-.3.36.507.464.461.673-.3.135-.495.383-.9.55-.9.168 0 .692-.9 1.165-2 .473-1.1.999-2 1.169-2 .169 0 .54-.642.824-1.426.284-.784.77-1.524 1.08-1.643.311-.119.565-.458.565-.753 0-.444 3.687-1.044 4.339-.706.076.039-2.822 4.539-6.44 10m24.055-8.381c-.507.83-3.045 4.74-5.639 8.688-2.594 3.949-4.581 7.312-4.416 7.475.166.163 2.696 1.493 5.624 2.956 5.64 2.818 11.084 6.301 16.52 10.57 1.699 1.334 8.43 7.993 11.028 10.91 5.478 6.15 11.618 18.931 13.985 29.11 2.055 8.84 3.17 22.499 2.153 26.4-.258.99-.463 2.16-.456 2.6.06 3.668-4.217 20.2-5.226 20.2-.227 0-.306.277-.177.615.135.35-.019.713-.357.843-.326.125-.593.463-.593.751 0 .289-.225.615-.5.726-.4.161-.4.208 0 .233.275.018.5.231.5.475 0 .243-.264.341-.587.217-.718-.275-1.213.417-1.213 1.699 0 1.107-1.38 1.595-1.432.506-.02-.437-.102-.489-.237-.152-.114.283.008.773.271 1.089.381.459.287.816-.462 1.765-1.061 1.342-1.625 1.576-1.29.533.19-.589.158-.605-.2-.1-.359.506-.558.518-1.277.072-.468-.29-.953-.425-1.079-.3-.125.126-.017.228.239.228.257 0 .467.371.467.824 0 .53-.178.731-.5.565-.275-.142-.069.092.458.521.559.456.835.978.664 1.255-.224.362-.426.364-.858.005-.434-.36-.564-.353-.564.03 0 .377-.162.364-.665-.051-.571-.471-.635-.464-.45.051.118.33-.227 1.075-.768 1.656-.628.675-.827 1.153-.55 1.324.238.147.433.066.433-.18s.18-.336.4-.2c.22.136.4.027.4-.243s.114-.376.254-.236c.388.388-.992 2.279-1.663 2.279-.367 0-.591-.388-.591-1.024 0-.563-.163-.922-.362-.799-.416.256-.123 1.767.494 2.553.299.382.255.633-.158.894-1.005.636-1.684.439-1.458-.424.115-.44.046-.8-.153-.8-.2 0-.363.525-.363 1.167 0 1.603-.372 2.433-1.092 2.433-.492 0-.513.112-.11.598.425.512.316.576-.764.451-.922-.108-1.368.054-1.661.602-.272.508-.268.749.013.749.228 0 .414.356.414.79 0 .684-.138.738-1.034.397-.568-.216-1.178-.303-1.354-.194-.177.109-.415-.16-.529-.597-.211-.809-1.083-1.127-1.083-.396 0 .22.18.4.4.4.22 0 .4.25.4.557 0 .306.486.678 1.079.827.828.208.947.353.511.622-.345.213-.669.189-.824-.061-.279-.451-.896 1.124-.782 1.997.039.299-.167.464-.457.367-.29-.097-.527-.521-.527-.942 0-.767-.492-1.349-1.149-1.361-.192-.003-.171.219.045.494.551.698.472 1.863-.111 1.639-.653-.251-1.859 1.01-1.525 1.593.148.258.126.339-.049.182-.174-.158-.658.146-1.075.676-.416.529-1.125 1.08-1.575 1.222-.54.172-.736.476-.576.892.133.348.011.779-.271.958-.378.24-.329.327.186.332.385.003.7.183.7.4 0 .226-.771.322-1.803.225-1.702-.159-4.073.571-3.551 1.094.284.284-.317 1.077-2.508 3.308-1.562 1.591-5.338 2.781-5.338 1.682 0-.167-.29-.303-.646-.303-1.645 0-3.675-1.688-4.174-3.472-1.295-4.623 2.61-8.915 7.633-8.39 2.606.273 6.029-1.866 11.087-6.926 3.236-3.237 3.119-3.443-.9-1.592-12.118 5.579-30.113 9.179-45.886 9.18-4.719 0-5.118.059-5.525.82-.479.895-5.881 8.415-8.656 12.05-.953 1.248-1.733 2.45-1.733 2.671 0 1.093 18.257-.448 25.72-2.171l4.48-1.034 1.346 1.532c.741.843 2.354 2.792 3.585 4.332 3.991 4.993 7.931 9.246 8.416 9.084.26-.086 1.518.894 2.795 2.179 6.743 6.788 6.376 6.694 12.269 3.121 8.706-5.279 8.472-4.435 4.959-17.931l-.923-3.547 3.176-2.808c1.748-1.545 5.427-5.107 8.177-7.917 4.672-4.773 5.066-5.081 6-4.699 3.523 1.439 13.584 4.715 14.485 4.717 1.19.001 2.25-1.363 6.252-8.042 2.905-4.847 2.976-4.601-3.131-10.846-2.857-2.921-5.196-5.491-5.197-5.711-.002-.22.995-3.37 2.216-7s2.402-7.443 2.625-8.474c.523-2.421.859-2.657 4.178-2.948 2.486-.217 6.76-.845 12.309-1.806 3.25-.563 3.063.316 3.063-14.385v-13.116l-1.135-.955c-1.215-1.023-8.682-2.568-14.845-3.071l-2.992-.245-.343-1.6c-.58-2.704-2.76-9.846-3.748-12.278-.515-1.269-.937-2.478-.937-2.689 0-.211 2.25-2.688 5-5.504 6.178-6.328 6.141-6.141 2.411-12.129-5.119-8.218-4.256-7.791-11.268-5.574-2.829.894-6.117 1.897-7.307 2.229l-2.165.604-4.435-4.367c-2.44-2.401-6.101-5.757-8.136-7.456-4.181-3.492-4.114-3.305-2.882-8.072 2.697-10.434 3.105-9.472-6.48-15.294l-1.462-.888-.922 1.509m-57.893 13.719c1.765.49 4.145 2.997 4.536 4.776 1.331 6.058-6.33 10.383-10.969 6.192-5.383-4.864-.649-12.935 6.433-10.968m40.499 12.855c-.247.4.927.877 4.331 1.759 6.795 1.76 12.911 4.282 19.809 8.169 3.274 1.845 3.915 1.659.957-.278-6.704-4.389-24.193-11.114-25.097-9.65m-87.16.928c-6.894 1.781-14.4 4.8-19.011 7.646-3.242 2.001-3.002 2.076.711.222 3.096-1.547 4.135-2.029 7.9-3.664 2.386-1.037 9.428-3.382 11.4-3.797 1.365-.287 3.797-1.383 3-1.352-.22.008-2.02.434-4 .945m98.6 7.522c21.719 11.276 22.431 22.563 1.986 31.478-4.728 2.062-4.912 2.46-.644 1.392 23.04-5.765 23.405-23.905.658-32.707-4.067-1.573-4.837-1.636-2-.163m-109.683.886c-.816.3-2.306 1.027-3.311 1.617-1.115.653-2.199 1-2.781.889-.683-.131-.893-.029-.744.36.137.357.002.463-.396.31-.332-.127-.725-.036-.872.202-.148.239-.436.33-.641.204-.204-.127-.372-.029-.372.217s-.151.354-.336.239c-.185-.114-.737.334-1.226.995-.672.909-1.092 1.139-1.714.942-.539-.171-.732-.113-.558.169.154.249-.164.54-.75.687-.559.14-1.018.46-1.021.711-.004.416-2.465 2.257-3.016 2.257-.399 0 .251-1.746 1.09-2.931 1.406-1.986.506-1.573-1.603.735-10.637 11.638-4.191 23.557 16.334 30.205 7.031 2.277 7.043 2.278 7.346.761.436-2.178.338-2.323-2.018-3.008-11.074-3.219-19.258-8.875-20.734-14.33-.695-2.567-.311-5.005.441-2.799 2.052 6.021 10.321 11.933 18.965 13.558l1.4.263-1.2-.654c-7.217-3.935-9.069-5.095-11.048-6.918-8.065-7.433-4.175-16.854 10.248-24.816 1.085-.599.327-.53-1.483.135m-63.94 13.24c-4.243 10.978-5.665 19.454-3.302 19.683 1.714.165 2.275-.825 2.902-5.124.273-1.87.905-4.84 1.406-6.6 1.69-5.939 1.806-6.681 1.183-7.57-.311-.444-.572-.633-.579-.419-.007.214-.271.047-.587-.37-.55-.726-.594-.709-1.023.4m239.243.122c-.597 1.114-.526 2.067.335 4.501 1.218 3.443 2.775 9.553 3.065 12.024.514 4.369 3.649 4.667 3.478.331-.095-2.398-.39-3.85-1.952-9.619-.759-2.801-2.244-6.751-2.528-6.725-.915.084-1.626-.138-1.435-.447.126-.205.056-.48-.156-.612-.213-.131-.576.115-.807.547m-42.224 5.126c-1.352 8.355-13.691 15.745-31.578 18.913-4.336.768-7.018 2.321-7.018 4.065 0 .672 10.906-.741 14.2-1.84.88-.294 2.23-.659 3-.811 11.891-2.35 23.2-10.259 23.2-16.226 0-3.689-1.368-6.799-1.804-4.101m-48.596 9.648c0 .185-2.215 3.65-4.922 7.7-21.332 31.912-21.926 32.763-22.901 32.763-1.187 0-.455-1.204 13.326-21.92 6.045-9.086 10.887-16.624 10.76-16.75-.126-.127-5.461-.324-11.855-.438-11.289-.203-11.607-.23-10.955-.95.722-.799 26.547-1.192 26.547-.405m-108.933 7.53c-.759.759-.269 14.58.587 16.571.914 2.123 1.398 2.455.77.527-.353-1.083-.817-11.365-.513-11.365.075 0 .936.668 1.913 1.485l1.776 1.484v12.129l1.718 1.584c3.331 3.07 16.772 9.551 17.607 8.49.074-.095.905-3.93 1.845-8.523 1.91-9.326 2.001-8.696-1.367-9.484-8.299-1.943-19.251-7.813-22.659-12.146-.823-1.045-1.21-1.219-1.677-.752m160.234.882c-3.661 4.951-18.222 11.498-30.066 13.519-7.643 1.303-10.73 1.727-12.635 1.733-5.085.016-6.084.342-7.628 2.491l-1.422 1.979 10.146-.135 10.147-.136 1.582-1.664c2.933-3.084 7.137-2.771 8.898.664 2.182 4.258-1.011 8.882-5.657 8.191-1.643-.245-1.688-.219-3.243 1.881-.867 1.17-1.857 2.468-2.2 2.883-1.486 1.8 13.197-1.831 19.505-4.823l2.928-1.389-.254-3.471c-.14-1.91-.318-4.642-.396-6.072-.078-1.43-.156-2.825-.174-3.1-.073-1.138-.83-.395-.815.8.019 1.579-.397 9.708-.569 11.1-.214 1.743-.252 1.813-.648 1.2-.322-.499-.393-.465-.419.2-.072 1.834-.762-1.058-.789-3.308-.07-5.807-.486-9.692-1.04-9.692-.676 0-.617-.416-.803 5.6-.085 2.75-.164 5.27-.176 5.6-.013.33-.135 1.32-.272 2.2l-.249 1.6-.279-1.2c-.153-.66-.3-3.961-.326-7.335l-.047-6.135-1.6.27c-2.289.387-1.979.036.9-1.017 8.114-2.97 14.213-6.268 16.943-9.16 1.886-1.998 1.964-1.764 1.872 5.676-.059 4.833.033 6.614.309 5.943.534-1.3.313-15.731-.244-15.916-.231-.076-.806.384-1.279 1.023m-8.101 22.684c0 .969.162 1.38.5 1.267.275-.092.5-.737.5-1.433 0-.747-.205-1.267-.5-1.267-.307 0-.5.553-.5 1.433M118.085 217.1c.134 6.783.233 7.672 1.04 9.3.493.993.796 1.352.677.8-.446-2.066-1.094-9.984-.865-10.58.197-.514.55-.401 2.051.657l1.812 1.277.006 6.023c.003 3.313.138 6.226.3 6.475 1.206 1.853 11.332 7.748 13.308 7.748.162 0 .386-.495.496-1.1.111-.605.851-4.16 1.645-7.9.793-3.74 1.443-6.902 1.444-7.027 0-.125-1.034-.549-2.299-.942-6.179-1.921-12.998-5.861-16.797-9.705-1.373-1.389-2.602-2.526-2.731-2.526s-.168 3.375-.087 7.5m160.785-6.239c-5.124 6.272-20.827 12.559-36.498 14.613l-5.029.659-2.571 3.572c-1.415 1.965-2.834 3.96-3.155 4.433-.321.474-2.359 3.266-4.529 6.205-5.383 7.289-5.537 6.638 1.495 6.318 13.243-.601 27.577-3.924 37.017-8.581l3-1.48-.138-7c-.14-7.096-.204-7.64-.821-6.973-.302.326-1.023 10.908-.902 13.228.055 1.046-1.368 1.567-1.727.632-.132-.343-.343-3.338-.469-6.656-.127-3.317-.303-6.109-.393-6.204-.589-.626-1.165 1.241-1.262 4.092-.394 11.526-1.093 13.03-1.255 2.701-.099-6.32.021-5.996-2.133-5.75-1.273.145-1.549.087-1.1-.232.33-.234.822-.429 1.093-.432 4.687-.058 20.92-9.799 20.901-12.541-.011-1.591-.545-1.803-1.524-.604m1.213 3.539c-.414 6.136-.456 12.101-.081 11.237.249-.572.369-3.332.297-6.8-.067-3.21-.165-5.207-.216-4.437m-54.483 2.358c0 .197-1.962 2.982-4.36 6.188-2.398 3.206-5.863 7.922-7.7 10.479-1.837 2.558-4.47 6.208-5.852 8.113-1.381 1.904-2.819 3.912-3.194 4.462-.375.55-1.945 2.71-3.488 4.8s-3.179 4.34-3.635 5c-.456.66-3.067 4.26-5.801 8-2.735 3.74-5.285 7.25-5.666 7.8-.382.55-1.372 1.929-2.199 3.063-.828 1.135-3.386 4.735-5.684 8-2.299 3.266-5.848 8.259-7.887 11.097-2.039 2.839-3.768 5.341-3.841 5.56-.073.22-.347.328-.608.24-.423-.142 8.272-13.636 15.956-24.76 1.444-2.09 3.942-5.78 5.551-8.2 1.61-2.42 3.62-5.419 4.467-6.664.848-1.245 1.541-2.44 1.541-2.657 0-.216.27-.497.6-.624.33-.126.6-.513.6-.859s.366-1.022.812-1.501c.447-.48 1.482-1.868 2.3-3.084.819-1.216 1.623-2.271 1.788-2.344.165-.074.3-.344.3-.6.001-.257.468-1.007 1.038-1.667.571-.66 1.295-1.695 1.61-2.3.315-.605.748-1.1.962-1.1.215 0 .39-.27.39-.6 0-.33.168-.6.373-.6s.474-.315.598-.7c.124-.385.766-1.33 1.426-2.1.661-.77 1.209-1.58 1.218-1.8.01-.22.543-1.014 1.185-1.765.642-.751 1.074-1.516.96-1.7-.114-.184.073-.335.416-.335.39 0 .624-.356.624-.951 0-.523.274-1.179.61-1.457.335-.278.539-.577.452-.663-.086-.086.36-.71.991-1.385.631-.676 1.147-1.397 1.147-1.603 0-.206.331-.73.736-1.164.405-.435.99-1.282 1.3-1.884.31-.601.744-1.298.964-1.548 1.23-1.4 1.8-2.192 1.8-2.501 0-.19.27-.57.6-.844 1.674-1.389.863-1.535-9.3-1.669-9.387-.124-12.145-.439-10.273-1.172 1.109-.434 26.173-.435 26.173-.001M74.437 219.93c-.618 1.156 2.383 13.67 3.279 13.67.203 0 .266.27.139.6-.333.87.533.736 1.352-.208.605-.698.734-.722.942-.179.163.424.08.537-.254.349-.381-.215-.387-.162-.026.228.258.279.362.785.232 1.124-.156.405-.076.518.231.328.67-.414.58-1.79-.307-4.7-.426-1.398-1.137-4.481-1.581-6.85-.444-2.369-.916-4.484-1.049-4.7-.425-.687-2.538-.445-2.958.338m247.19.02c-.235.439-.427 1.208-.427 1.71 0 .793-1.204 6.145-2.438 10.84-.553 2.103.647 3.559 2.097 2.544.506-.354.744-.647.53-.65-.215-.004-.196-.138.043-.3.729-.497 3.076-9.733 3.124-12.294l.044-2.4-1.273-.123c-.943-.092-1.385.083-1.7.673m-137.701 5.353-.126.87-14-.123c-15.174-.133-14.506-.086-13.639-.954.507-.507 2.69-.603 14.244-.631l13.646-.032-.125.87m71.262 2.491c4.817 2.491 3.487 9.762-1.917 10.487-4.326.58-7.696-4.639-5.369-8.314 1.629-2.572 4.727-3.496 7.286-2.173m15.764 3.563c-.246.416-.36 1.091-.253 1.5.107.409.038.743-.152.743-.191 0-.373.45-.405 1-.067 1.173.308 1.275 1.108.3.395-.481.508-1.262.362-2.5-.183-1.554-.273-1.697-.66-1.043m14.923 8.192c.428.685.389.711-.469.306-.516-.243-.852-.58-.748-.748.31-.502.721-.353 1.217.442m-4.283.456c-.773.477-.375.761.581.414.426-.155.597-.39.381-.524-.216-.133-.648-.084-.962.11m-1.354 1.84c-.181.471-.076.579.39.4.351-.135.723-.245.828-.245.105 0 .08-.18-.056-.4-.367-.594-.882-.485-1.162.245m5.182.588c.17.274-.077.384-.676.3-.717-.101-.929.046-.881.61.044.525-.062.618-.363.317s-.276-.607.086-1.043c.596-.718 1.451-.804 1.834-.184m-137.295.813c.864.503 8.902 2.563 11.522 2.954 1.788.266 1.856.239 2.119-.862.15-.626.366-1.453.48-1.838.193-.65-.335-.699-7.319-.688-5.471.009-7.329.127-6.802.434m128.332 2.717c-.402.25-.421.412-.073.627.549.339.961.039.758-.552-.084-.242-.366-.273-.685-.075m-.739 2.538c-.076 1.19-.036 1.237.472.56.305-.406.458-.991.34-1.3-.365-.951-.726-.622-.812.74m-129.827 9.155c5.262 3.253 2.446 11.389-3.884 11.222-4.452-.117-7.149-5.288-4.768-9.141 1.71-2.767 5.908-3.777 8.652-2.081m117.715 2.07c-.003.4-.213 1.113-.466 1.585l-.459.859-.402-.985c-.352-.866-.422-.894-.579-.233-.173.728.466 1.429 1.312 1.442.612.009 1.347-2.215.944-2.852-.265-.417-.345-.375-.35.184M102.5 269.234c-2.171.82-1.111 2.706 5.696 10.136 7.701 8.406 14.621 14.572 22.204 19.788 4.391 3.02 14.247 8.842 14.968 8.842.181 0 1.025-2.675 1.03-3.264.001-.145-1.393-1.029-3.098-1.964-1.705-.935-3.55-2.007-4.1-2.382-.55-.375-2.08-1.369-3.4-2.208-2.696-1.715-9.171-6.519-12.8-9.497-3.268-2.682-11.763-11.309-15.364-15.601-3.292-3.925-3.843-4.338-5.136-3.85m192.786.266c-.441.385-2.686 2.869-4.988 5.52-6.983 8.039-15.654 16.031-23.632 21.78-.763.55-1.305 1.135-1.203 1.3.101.165-.111.3-.472.3-.36 0-1.586.6-2.723 1.333-6.251 4.029-10.982 6.403-19.268 9.669-9.506 3.747-16.348 5.648-25.928 7.206-5.377.874-6.742 1.893-4.945 3.69.924.925 17.219-1.505 19.485-2.905.178-.11 1.852-.643 3.72-1.185 10.011-2.901 25.629-10.239 30.868-14.504.22-.18 1.907-1.384 3.749-2.677 10.257-7.201 28.43-25.282 28.447-28.304.009-1.468-1.948-2.237-3.11-1.223m-59.019 14.367c-6.995 2.483-15.932 4.451-25.467 5.608-2.658.323-16.411.287-18.193-.047-1.182-.222-1.402-.069-3.168 2.204-2.276 2.932-2.52 2.627 2.513 3.144 15.348 1.575 38-1.867 50.348-7.651 1.899-.889 1.871-.844 1.251-2.051-1.473-2.866-2.248-2.995-7.284-1.207m-61.372 33.002c-1.023 1.504-1.127 1.401 2.305 2.306 6.078 1.603 10.531 1.491 10.327-.26-.194-1.669-3.113-2.707-8.863-3.154l-2.864-.222-.905 1.33"/>
    <path fill="#7c91af" d="M212.158 74.663c.619.178.656.289.2.608-.422.295-.429.356-.028.249.777-.205.63-.907-.209-.997-.615-.066-.609-.045.037.14M190 78.125c0 .069.585.654 1.3 1.3l1.3 1.175-1.175-1.3C190.33 78.088 190 77.816 190 78.125M147.6 90.6c-.55.314-.82.572-.6.572.22 0 .85-.258 1.4-.572.55-.314.82-.572.6-.572-.22 0-.85.258-1.4.572m26.4 1.8-5.4.236 5.276.082c3.178.049 5.375-.077 5.524-.318.136-.22.192-.363.124-.318-.068.045-2.554.188-5.524.318m19.7 13.5c7.865.06 20.735.06 28.6 0 7.865-.061 1.43-.11-14.3-.11s-22.165.049-14.3.11m44.5-.045c2.801.295 7.002.322 7.001.045-.001-.165-1.846-.271-4.101-.236-2.255.035-3.56.121-2.9.191m.3 2.466c-1.429.082-2.1.292-2.1.657 0 .295-.254.634-.565.753-.31.119-.796.859-1.08 1.643-.284.784-.655 1.426-.824 1.426-.17 0-.696.9-1.169 2-.473 1.1-.997 2-1.165 2-.167 0-.415.405-.55.9-.209.761-.313.807-.673.3-.336-.473-.373-.41-.173.3.149.529.077.9-.174.9-.235 0-.398.135-.363.3.113.537-.592 1.885-1.329 2.541-.396.352-.616.745-.488.873.129.128-.116.608-.543 1.066-.427.459-1.024 1.325-1.328 1.927-.656 1.3-2.812 4.609-3.188 4.893-.146.11-.386.695-.534 1.3-.148.605-.443 1.1-.655 1.1-.212 0-.835.887-1.385 1.972-.549 1.084-1.164 2.073-1.365 2.198-.201.124-.764.992-1.25 1.928-.486.936-1.405 2.476-2.042 3.422-.636.946-1.157 1.814-1.157 1.928 0 .115-1.675 2.851-3.723 6.08-6.113 9.644-11.484 19.026-11.464 20.027.022 1.159 2.299-1.932 8.008-10.872 2.079-3.255 4.589-7.163 5.579-8.686.99-1.523 3.054-4.71 4.587-7.083 4.306-6.666 10.641-16.367 16.066-24.6 2.823-4.284 4.838-7.732 4.712-8.06-.121-.315.003-.711.276-.879.345-.214.418-.105.24.359-.436 1.137.061.737 1.172-.942 1.254-1.896 1.312-1.825-1.353-1.671M112.392 115.5l-3.792 3.9 3.9-3.792c3.622-3.522 4.082-4.008 3.792-4.008-.059 0-1.814 1.755-3.9 3.9m167.208-1.3c.746.77 1.447 1.4 1.557 1.4.11 0-.411-.63-1.157-1.4-.746-.77-1.447-1.4-1.557-1.4-.11 0 .411.63 1.157 1.4m7.183 7.1c.981 1.045 1.836 1.9 1.9 1.9.301 0-.017-.359-1.783-2.017L285 119.4l1.783 1.9m5.651.147c.531.686 1.046 1.176 1.145 1.088.098-.088-.336-.649-.966-1.247l-1.144-1.088.965 1.247m-132.234 1.76c-.44.193-2.69 1.096-5 2.006-11.837 4.662-20.498 10.108-28.2 17.731-2.2 2.178-3.05 3.14-1.89 2.138 6.885-5.945 18.855-11.478 30.774-14.226 1.586-.365 3.085-.865 3.331-1.111.317-.317 2.113-7.14 1.821-6.918-.02.015-.396.186-.836.38m37.305.276c.497.096 1.217.092 1.6-.008.382-.1-.025-.179-.905-.174-.88.004-1.193.086-.695.182m48.839 4.83-1.455 2.287 4.055 1.298c2.231.714 4.416 1.466 4.856 1.672.44.206 2.24 1.009 4 1.786 18.444 8.141 27.439 17.966 27.459 29.992.006 3.433.167 4.73.723 5.833 5.529 10.971 6.888 38.694 2.304 47.008-.246.446-.561 2.881-.7 5.411-.266 4.837-.88 6.859-3.061 10.077-.57.839-.872 1.685-.701 1.961.175.284.132.382-.104.236-.222-.137-.821.195-1.332.738-.51.544-.814.988-.675.988 1.282 0-6.495 5.748-10.582 7.821-1.687.856-2.993 1.678-2.902 1.826.502.812-10.33 9.945-11.813 9.959-.362.003-.209.212.372.506 1.411.714 2.812 2.979 2.812 4.547 0 1.312.825 1.872 1.396.948.134-.217 1.134-.309 2.223-.205 1.165.111 1.981.026 1.981-.207 0-.217-.315-.398-.7-.401-.515-.005-.564-.092-.186-.332.282-.179.404-.61.271-.958-.16-.416.036-.72.576-.892.45-.142 1.159-.693 1.575-1.222.417-.53.901-.834 1.075-.676.175.157.197.076.049-.182-.334-.583.872-1.844 1.525-1.593.583.224.662-.941.111-1.639-.216-.275-.237-.497-.045-.494.657.012 1.149.594 1.149 1.361 0 .421.237.845.527.942.29.097.496-.068.457-.367-.114-.873.503-2.448.782-1.997.155.25.479.274.824.061.436-.269.317-.414-.511-.622-.593-.149-1.079-.521-1.079-.827 0-.307-.18-.557-.4-.557-.22 0-.4-.18-.4-.4 0-.731.872-.413 1.083.396.114.437.352.706.529.597.176-.109.786-.022 1.354.194.896.341 1.034.287 1.034-.397 0-.434-.186-.79-.414-.79-.281 0-.285-.241-.013-.749.293-.548.739-.71 1.661-.602 1.08.125 1.189.061.764-.451-.403-.486-.382-.598.11-.598.72 0 1.092-.83 1.092-2.433 0-.642.163-1.167.363-1.167.199 0 .268.36.153.8-.226.863.453 1.06 1.458.424.413-.261.457-.512.158-.894-.617-.786-.91-2.297-.494-2.553.199-.123.362.236.362.799 0 .636.224 1.024.591 1.024.671 0 2.051-1.891 1.663-2.279-.14-.14-.254-.034-.254.236s-.18.379-.4.243c-.22-.136-.4-.046-.4.2s-.195.327-.433.18c-.277-.171-.078-.649.55-1.324.541-.581.886-1.326.768-1.656-.185-.515-.121-.522.45-.051.503.415.665.428.665.051 0-.383.13-.39.564-.03.432.359.634.357.858-.005.171-.277-.105-.799-.664-1.255-.527-.429-.733-.663-.458-.521.322.166.5-.035.5-.565 0-.453-.21-.824-.467-.824-.256 0-.364-.102-.239-.228.126-.125.611.01 1.079.3.719.446.918.434 1.277-.072.358-.505.39-.489.2.1-.335 1.043.229.809 1.29-.533.749-.949.843-1.306.462-1.765-.263-.316-.385-.806-.271-1.089.135-.337.217-.285.237.152.052 1.089 1.432.601 1.432-.506 0-1.282.495-1.974 1.213-1.699.323.124.587.041.587-.184s-.225-.5-.5-.611c-.4-.161-.4-.208 0-.233.275-.018.5-.283.5-.589 0-.307.267-.66.593-.785.338-.13.492-.493.357-.843-.129-.338-.05-.615.177-.615 1.009 0 5.286-16.532 5.226-20.2-.007-.44.198-1.61.456-2.6 1.017-3.901-.098-17.56-2.153-26.4-2.367-10.179-8.507-22.96-13.985-29.11-2.598-2.917-9.329-9.576-11.028-10.91-5.504-4.322-10.848-7.73-16.833-10.733-6.702-3.363-5.519-3.277-7.266-.534m-54.651 1.287c0 .77.082 1.085.183.7.1-.385.1-1.015 0-1.4-.101-.385-.183-.07-.183.7m13.208.2c.004.88.086 1.193.182.695.096-.497.092-1.217-.008-1.6-.1-.382-.179.025-.174.905m-100.407.612c-.719.653-1.157 1.188-.975 1.188.182 0 .849-.54 1.481-1.2 1.47-1.535 1.186-1.528-.506.012m190.394.201c.598.63 1.159 1.064 1.247.966.088-.099-.402-.614-1.088-1.145l-1.247-.965 1.088 1.144M124.975 136.1l-1.175 1.3 1.3-1.175c.715-.646 1.3-1.231 1.3-1.3 0-.309-.33-.037-1.425 1.175m113.905 3.165c-2.182 3.482-2.247 3.935-.558 3.935 5.902 0 10.389 4.143 7.809 7.209l-1.07 1.271-6.83-.276-6.831-.277-1.725 2.67c-.949 1.468-1.826 2.931-1.948 3.25-.192.499 1.362.573 11.125.53 6.241-.028 11.857-.034 12.479-.014 3.329.108 4.188 3.282 1.805 6.671-2.093 2.975-9.651 14.104-11.387 16.766-.718 1.1-1.81 2.53-2.427 3.177-.617.647-.748.872-.29.5.467-.38 2.748-1.024 5.2-1.467 4.501-.813 17.007-4.626 13.807-4.21-1.552.202-1.7.156-1.251-.386.347-.418.366-.614.061-.614-.9 0-.418-.733.751-1.14.66-.23 1.2-.5 1.2-.599 0-.1-1.216.242-2.701.759-5.687 1.977-6.707 1.626-1.713-.591 20.449-9.077 19.746-20.232-1.986-31.514-2.837-1.473-2.067-1.41 2 .163 15.78 6.106 21.672 17.408 13.327 25.568-1.52 1.486-1.626 1.661-.501.829 1.893-1.403 3.841-3.872 4.845-6.142.81-1.83.821-2.174.241-7.333-.085-.757.093-1.029.73-1.12 1.071-.153 2.544 3.033 2.586 5.594.021 1.299.109 1.528.356.926.47-1.146 1.194.776 1.583 4.2.294 2.599.295 2.599.849 1.4 2.85-6.161-2.296-16.311-11.416-22.52-.556-.378-.525-.301.1.252 1.624 1.436.947 1.322-2-.339-2.889-1.628-6.878-3.591-10.3-5.069-1.696-.733-5.239-1.879-11.2-3.624-1.473-.431-2.557-.964-2.5-1.23.197-.927-.205-.421-2.22 2.795m-82.112-2.423c.532.21 1.107.242 1.278.07.171-.172-.264-.344-.967-.382-1.201-.066-1.22-.047-.311.312M277.8 139.6c.859.88 1.652 1.6 1.762 1.6.11 0-.503-.72-1.362-1.6-.859-.88-1.652-1.6-1.762-1.6-.11 0 .503.72 1.362 1.6m-132.035 4.744c.117.189-.232.295-.776.235s-.989.021-.989.179-.405.467-.9.686c-.976.432-.672.427.9-.015.762-.214.857-.181.4.139-.938.656.043.479 1.707-.308.828-.393 1.383-.836 1.233-.987-.399-.399-1.825-.335-1.575.071m-12.361 1.662c.227.368.151.462-.249.309-.691-.265-3.016 1.477-2.444 1.83.219.135.621-.022.893-.349.272-.328.72-.596.996-.596.817 0 1.535-1.07.958-1.426-.328-.202-.377-.128-.154.232m5.296.297c-.605.375-1.1.831-1.1 1.013 0 .182-.178.221-.395.087-.455-.281-3.533.997-4.416 1.834-.327.31-1.673 1.283-2.992 2.163-1.318.88-2.457 1.735-2.53 1.9-.236.531-.867.319-.867-.292 0-.325.902-1.483 2.004-2.574 3.043-3.012 1.777-2.75-1.44.298-1.549 1.467-2.22 2.138-1.49 1.49.729-.649 1.326-.974 1.326-.724s-.198.577-.441.727c-.524.324-1.687 2.981-1.42 3.247.295.295 3.051-1.624 3.056-2.129.003-.251.462-.571 1.021-.711.586-.147.904-.438.75-.687-.174-.282.019-.34.558-.169.622.197 1.042-.033 1.714-.942.489-.661 1.041-1.109 1.226-.995.185.115.336.007.336-.239s.168-.344.372-.217c.205.126.493.035.641-.204.147-.238.54-.329.872-.202.398.153.533.047.396-.31-.148-.387.059-.491.724-.364 1.012.193 5.074-1.852 4.743-2.388-.317-.512-1.469-.343-2.648.388m1.9 1.572c-14.289 9.473-14.497 19.153-.575 26.798 2.076 1.14 4.315 2.367 4.975 2.727l1.2.654-1.4-.263c-8.644-1.625-16.913-7.537-18.965-13.558-.752-2.206-1.136.232-.441 2.799 1.24 4.584 5.869 8.434 14.414 11.991 3.335 1.388 8.264 3.065 8.418 2.864.173-.226 1.508-6.102 2.201-9.687.425-2.2.952-4.522 1.173-5.16.522-1.513.505-1.837-.1-1.854-1.731-.05-3.472-2.771-3.325-5.197.07-1.154-.106-2.038-.495-2.489-.363-.42-.426-.7-.158-.7.245 0 .408-.522.362-1.16-.084-1.164-1.484-1.126-1.484.041 0 .249-.105.348-.232.22-.128-.128-.039-.595.198-1.038.35-.653.299-.839-.267-.988-.672-.175.965-.413 2.301-.334.33.019.107-.193-.496-.471-1.042-.482-1.062-.541-.4-1.21.661-.668.661-.69-.004-.439-.477.18-.7.069-.7-.349 0-.337.315-.679.7-.759.569-.118.531-.191-.201-.392-.499-.137-.8-.085-.676.116.123.2.034.363-.199.363s-.424.36-.424.8c0 .498-.265.798-.7.794-.405-.004-.527-.13-.289-.3 1.172-.838.176-3.328-1.029-2.575-.64.399-.782.383-.782-.089 0-.317.351-.687.78-.824.471-.149.691-.476.557-.826-.123-.319-.023-.58.22-.58.244 0 .443.18.443.4 0 .22.202.4.449.4.304 0 .284-.199-.064-.618-.282-.34-.754-.526-1.049-.413-.295.113-.536.032-.536-.182 0-.654-.497-.436-3.4 1.488m5.392.735c-.773.931-.221 1.107.606.192.399-.441.54-.802.313-.802-.227 0-.641.274-.919.61m123.278.69c1.068.858 3.93 4.743 3.93 5.336 0 1.059-1.579.566-2.89-.903-.721-.807-1.715-1.83-2.21-2.272-1.76-1.574-.65-3.623 1.17-2.161m-189.064 5.8c-.377.825-.998 2.13-1.382 2.9-.383.77-.81 1.94-.949 2.6-.281 1.33.145.618.931-1.559.401-1.108.445-1.126.994-.4.316.417.58.584.587.37.007-.214.28-.008.607.459.472.674.503 1.105.153 2.109-.242.694-.354 1.348-.249 1.452.356.357 1.551-4.648 1.299-5.441-.138-.435-.097-.79.09-.79.188 0 .342-.36.342-.8 0-.44-.142-.8-.315-.8-.173 0-.32.405-.327.9-.012.871-.031.876-.591.135-.334-.441-.48-1.16-.344-1.7.354-1.41-.075-1.124-.846.565m237.687-.998c-.142.37-.086.779.124.909.653.403.42.978-.286.707-.502-.192-.607-.094-.421.392.176.459.078.583-.335.425-.407-.156-.539.001-.435.521.082.409.291 1.536.465 2.503l.316 1.76.44-1.36c.37-1.147 1.104-1.782 1.009-.875-.038.367 1.335.871 1.736.638.169-.097.008-.75-.357-1.45-1.321-2.533-1.469-2.863-1.732-3.844-.217-.812-.314-.872-.524-.326m-14.112 2.398-1.581 1.7 1.7-1.581c1.581-1.471 1.884-1.819 1.581-1.819-.065 0-.83.765-1.7 1.7m-154.981-.619c0 .249.225.544.5.655.376.153.352.308-.1.627-.369.262-.417.427-.124.431.833.011 1.042-.847.371-1.518-.366-.367-.647-.451-.647-.195M102 163c.746.77 1.447 1.4 1.557 1.4.11 0-.411-.63-1.157-1.4-.746-.77-1.447-1.4-1.557-1.4-.11 0 .411.63 1.157 1.4m-25.351.815c-.137.358-.234.951-.215 1.318.019.367.193.136.387-.513.377-1.262.244-1.887-.172-.805m126.896 7.09c.168.168 6.774.258 14.68.2l14.375-.106-14.68-.199c-8.075-.11-14.543-.063-14.375.105m-81.145 2.42c0 .069.585.654 1.3 1.3l1.3 1.175-1.175-1.3c-1.095-1.212-1.425-1.484-1.425-1.175m78.253 1.017c-.652.72-.334.747 10.955.95 13.132.235 12.397.082 11.006 2.285-.573.909-.919 1.854-.767 2.1.158.255.097.336-.141.188-.543-.335-1.704 1.442-1.712 2.621-.004.64-.106.757-.338.39-.251-.394-.5-.268-1.011.511-.373.57-.567 1.215-.432 1.434.136.219.061.349-.166.289-.648-.173-8.836 12.434-8.586 13.219.152.474.108.524-.147.171-.42-.581-10.514 14.447-10.514 15.652 0 .768 1.304.032 2.403-1.356 2.701-3.411 9.582-14.097 9.334-14.498-.143-.232-.078-.309.145-.171.54.334 12.245-17.199 11.878-17.792-.163-.264-.108-.35.13-.203.391.241 4.51-5.394 4.51-6.169 0-.808-25.807-.44-26.547.379m3.047.34c-.495.096-1.305.096-1.8 0-.495-.095-.09-.173.9-.173s1.395.078.9.173m22.7.197c0 .177-.136.321-.302.321-.167 0-.547.552-.845 1.226-.364.821-.74 1.149-1.142.995-.416-.159-.529-.045-.368.374.128.333.088.605-.089.605-.741 0-.741-.545-.002-1.798 1.007-1.707.719-1.863-3.236-1.746-1.759.053-3.335-.041-3.502-.208-.166-.167 1.9-.255 4.591-.196 2.692.059 4.895.251 4.895.427m97.4 3.921-1.2.305 1.076.048c.592.026 1.188-.133 1.324-.353.136-.22.192-.379.124-.353-.068.026-.664.185-1.324.353m-70.4 1.6c-1.101.473-1.492.473-1.2 0 .136-.22.642-.387 1.124-.372.845.027.847.041.076.372m-156.4.8-1.2.305 1.076.048c.592.026 1.188-.133 1.324-.353.136-.22.192-.379.124-.353-.068.026-.664.185-1.324.353m180.178 2.3L275.8 185l1.5-1.378c1.396-1.284 1.684-1.622 1.378-1.622-.066 0-.741.675-1.5 1.5m1.145 1.617c-.75 1.027-3.346 3.011-6.099 4.66-1.519.909-2.097 1.433-1.6 1.451.752.027.751.039-.024.372-1.092.469-1.493.474-1.209.014.233-.376-1.149.11-4.391 1.545-.88.39-2.725 1.12-4.1 1.624-2.879 1.053-3.189 1.404-.9 1.017l1.6-.27.004 5.735c.005 6.408.344 9.644.831 7.935.157-.55.285-1.45.285-2v-1l-.32 1c-.301.94-.323.921-.36-.324-.024-.789.122-1.223.36-1.076.429.265.45.063.594-5.8.119-4.871.108-4.8.758-4.8.554 0 .97 3.882 1.041 9.701.015 1.265.191 2.732.392 3.259.2.527.24 1.082.089 1.234-.15.153.226.05.837-.228.612-.278.955-.609.764-.735-.192-.127-.286-.861-.21-1.631.195-1.958.571-9.533.552-11.1-.015-1.197.738-1.934.818-.8.178 2.515.306 5.152.425 8.72l.14 4.22 1.006-.573c.853-.487.983-.807.857-2.12-.107-1.125.005-1.547.409-1.547.377 0 .542.446.511 1.381-.025.76.103 1.289.286 1.177.726-.449.385-6.158-.369-6.164-.553-.005-.584-.08-.15-.355.406-.257.54-1.284.51-3.894l-.042-3.545 3.216-2.2c1.769-1.21 3.415-2.56 3.657-3 .394-.717.371-.743-.226-.251-.928.766-.837-.069.1-.917.726-.658.773-.656.92.038.114.537.214.44.379-.37.263-1.288-.519-1.511-1.341-.383M79.379 199.2c0 7.15.054 10.075.12 6.5.067-3.575.067-9.425 0-13-.066-3.575-.12-.65-.12 6.5m39.534-10.9c-.052.949-.013.99.285.3.45-1.042.473-1.4.089-1.4-.172 0-.34.495-.374 1.1m117.654-.646c-.118.19.336.346 1.009.346.673 0 1.224-.069 1.224-.153 0-.34-2.034-.516-2.233-.193m-114.684 1.967c.267.343.544 2.221.618 4.2l.134 3.579.083-3.651c.069-3.065-.03-3.739-.618-4.2-.615-.482-.641-.474-.217.072m-2.552 5.779c.002 1.54.074 2.121.161 1.291.087-.83.085-2.09-.003-2.8-.089-.71-.16-.031-.158 1.509m147.869-2.224c0 .207-.18.488-.4.624-.225.139-.428 2.377-.464 5.124-.035 2.682-.131 4.246-.212 3.476-.082-.77-.349-1.796-.593-2.281-.521-1.03-.128-5.999.538-6.802.501-.604 1.131-.682 1.131-.141m2.708 3.949c.087.261-.126.475-.475.475-.348 0-.633-.285-.633-.633 0-.707.861-.584 1.108.158m-151.494.699c-.03.906 1.041 1.937 1.389 1.337.18-.31.171-.421-.018-.248-.189.171-.571-.099-.85-.6-.279-.502-.513-.722-.521-.489m110.735.476c-.478.61-.471.64.053.233.33-.257 1.23-.544 2-.636l1.398-.169-1.451-.064c-.964-.043-1.635.171-2 .636m40.674.784c-.123.32-.223.657-.223.749 0 .092-.202.167-.449.167-.327 0-.33-.144-.009-.53.321-.387.308-.661-.052-1.023-.388-.391-.339-.437.233-.219.421.16.63.518.5.856M246.4 201.6l-1.4.295 1.276.052c.702.029 1.388-.127 1.524-.347.136-.22.192-.376.124-.347-.068.029-.754.185-1.524.347m31.381 10.1-1.581 1.7 1.7-1.581c1.581-1.471 1.884-1.819 1.581-1.819-.065 0-.83.765-1.7 1.7M121 212.4c.859.88 1.652 1.6 1.762 1.6.11 0-.503-.72-1.362-1.6-.859-.88-1.652-1.6-1.762-1.6-.11 0 .503.72 1.362 1.6m156.714 2.379c-1.367 1.262-3.553 2.863-4.857 3.558-1.753.935-2.444 1.55-2.651 2.363-.357 1.399-.376 8.302-.024 8.871.146.236.12.43-.058.43-.178.001-.342 1.165-.363 2.586-.023 1.475.118 2.488.327 2.359.202-.125.27-.479.152-.786-.118-.308-.02-.56.219-.56s.347-.334.24-.743c-.107-.409.007-1.084.253-1.5.389-.657.483-.519.712 1.043.145.99.201-.192.124-2.627-.077-2.434-.171-4.594-.211-4.8-.446-2.317.083-4.005 1.526-4.877 2.752-1.662 3.088-1.89 4.41-2.996 1.737-1.453 2.074-1.39 2.153.4.037.825.179.06.316-1.7.138-1.76.243-3.226.234-3.258-.009-.032-1.135.975-2.502 2.237m-184.014.297c.385.1 1.015.1 1.4 0 .385-.101.07-.183-.7-.183s-1.085.082-.7.183m211.2 0c.385.1 1.015.1 1.4 0 .385-.101.07-.183-.7-.183s-1.085.082-.7.183m-185.938 1.478c-.117.305-.143 1.34-.057 2.3.15 1.686.158 1.672.225-.403.065-1.985.123-2.107.77-1.6.634.498.649.483.151-.151-.663-.845-.813-.865-1.089-.146m80.465.205c-1.872.733.886 1.048 10.273 1.172 10.163.134 10.974.28 9.3 1.669-.33.274-.6.654-.6.844 0 .309-.57 1.101-1.8 2.501-.22.25-.654.947-.964 1.548-.31.602-.895 1.449-1.3 1.884-.405.434-.736.958-.736 1.164 0 .206-.516.927-1.147 1.603-.631.675-1.077 1.299-.991 1.385.087.086-.117.385-.452.663-.336.278-.61.934-.61 1.457 0 .595-.234.951-.624.951-.343 0-.53.151-.416.335.114.184-.318.949-.96 1.7-.642.751-1.175 1.545-1.185 1.765-.009.22-.557 1.03-1.218 1.8-.66.77-1.302 1.715-1.426 2.1-.124.385-.393.7-.598.7-.205 0-.373.27-.373.6 0 .33-.175.6-.39.6-.214 0-.647.495-.962 1.1-.315.605-1.039 1.64-1.61 2.3-.57.66-1.037 1.41-1.038 1.667 0 .256-.135.526-.3.6-.165.073-.969 1.128-1.788 2.344-.818 1.216-1.853 2.604-2.3 3.084-.446.479-.812 1.155-.812 1.501 0 .346-.27.733-.6.859-.33.127-.6.408-.6.624 0 .217-.693 1.412-1.541 2.657-.847 1.245-2.857 4.244-4.467 6.664-1.609 2.42-4.107 6.11-5.551 8.2-7.684 11.124-16.379 24.618-15.956 24.76.261.088.535-.02.608-.24.073-.219 1.802-2.721 3.841-5.56 2.039-2.838 5.588-7.831 7.887-11.097 2.298-3.265 4.856-6.865 5.684-8 .827-1.134 1.817-2.513 2.199-3.063.381-.55 2.931-4.06 5.666-7.8 2.734-3.74 5.345-7.34 5.801-8 .456-.66 2.092-2.91 3.635-5 1.543-2.09 3.113-4.25 3.488-4.8.375-.55 1.813-2.56 3.194-4.467 1.382-1.907 3.845-5.327 5.475-7.6 1.629-2.273 3.929-5.411 5.11-6.974 1.514-2.003 2.074-3.065 1.899-3.6-.178-.547-.141-.611.133-.229.373.521 2.915-2.113 2.882-2.988-.007-.188-.277.007-.6.434-.323.428-.587.585-.587.349 0-.235.27-.651.6-.925.33-.274.6-.35.6-.169 0 .181.223.106.497-.168.395-.395.375-.582-.1-.917-.502-.354-.487-.386.092-.2.637.204 1.911-1.019 1.911-1.835 0-.4-25.147-.354-26.173.048m-77.075 2.528c.185 1.111.241 1.168.367.367.082-.521-.016-1.111-.218-1.313-.222-.222-.28.152-.149.946m145.848 1.491c-.88.417-1.459.772-1.287.79.47.048 3.087-1.094 3.087-1.348 0-.297.019-.303-1.8.558M119.32 222.8c0 1.21.075 1.705.167 1.1.091-.605.091-1.595 0-2.2-.092-.605-.167-.11-.167 1.1m144.481-.346c-1.88.762-3.22 1.567-1.701 1.022.501-.179.7-.046.7.47 0 1.132-.459 1.309-1.194.461-.58-.669-.882-.722-2.141-.374-1.947.538-1.868.926.135.658 2.04-.274 1.934-.57 2.033 5.729.069 4.417.518 8.245.772 6.58.274-1.8.274-5.042 0-4.2-.279.859-.331.885-.365.18-.022-.451.146-1.006.374-1.234.227-.227.452-1.964.5-3.86.075-3.016.625-4.909 1.236-4.259.09.095.266 2.887.393 6.204.259 6.797.378 7.367 1.483 7.078.93-.243.985-.755.17-1.57-.332-.332-.481-.802-.331-1.045.172-.278.385-.155.576.333.246.627.309.546.337-.427.257-8.909.553-11.8 1.209-11.8.264 0 .413 2.027.413 5.624 0 3.093.135 5.54.3 5.439.165-.102.246-2.722.179-5.824l-.121-5.639h-.979c-.914 0-1.402 2.145-1.025 4.504.027.167-.113 1.022-.31 1.9-.198.878-.242 1.596-.099 1.596.144 0 .189.855.101 1.9s-.24 1.674-.337 1.398c-.098-.277-.342-.401-.543-.277s-.366-.054-.366-.397.202-.624.449-.624c.322 0 .328-.146.019-.518-.237-.286-.442-.871-.455-1.3-.189-6.034-.269-6.734-.79-6.908-.352-.117-.056-.451.811-.913 1.813-.966 1.058-.917-1.433.093M111.709 224.8c0 .99.078 1.395.173.9.096-.495.096-1.305 0-1.8-.095-.495-.173-.09-.173.9m44.452.296c-.867.868-1.535.821 13.639.954l14 .123.126-.87.125-.87-13.646.032c-11.554.028-13.737.124-14.244.631m106.332 4.278c.102.536.036 1.211-.147 1.5-.213.335-.336-.018-.34-.974-.007-1.715.214-1.953.487-.526m-103.568-.275c3.699.067 9.639.066 13.2 0s.535-.12-6.725-.12-10.174.054-6.475.12M76.048 230.4c-.006.33.235 1.14.538 1.8.707 1.545.717.826.014-1-.297-.77-.545-1.13-.552-.8m242.47 1.672c-.255.95-.597 2.073-.759 2.494-.229.593-.167.69.273.431.388-.228.359-.091-.092.434-.363.423-.839 1.399-1.057 2.169-.218.77-.525 1.715-.682 2.1-.235.573-.08.694.856.668.629-.017.918-.122.643-.233-.577-.233-.678-.935-.133-.935.201 0 .533.495.737 1.1.364 1.08.376 1.083.66.2.16-.495.435-.9.613-.9.332 0 .984-2.188.932-3.127-.016-.289.07-.427.192-.306.121.122.463-.247.76-.819.657-1.266.661-1.348.072-1.348-.256 0-.347.119-.202.264.145.145-.108.525-.563.844-1.36.952-2.589-.627-1.963-2.524.253-.765.396-1.582.318-1.816-.078-.234-.35.353-.605 1.304M79.2 234c-.317.44-.807.8-1.088.8-.729 0-.638.686.367 2.774 1.285 2.668 3.152 3.964 3.691 2.561.122-.319.045-.468-.171-.334-.216.133-.709.058-1.096-.167-.637-.371-.623-.411.154-.422 1.251-.018 1.401-.91.553-3.296-.44-1.239-.764-1.753-.781-1.24-.016.482-.24 1.007-.497 1.166-.307.19-.387.077-.231-.328.13-.339.026-.845-.232-1.124-.361-.39-.355-.443.026-.228.333.188.417.075.258-.341-.297-.774-.262-.78-.953.179m189.388 1.408c-.006.731.129 1.244.3 1.138.399-.247.408-2.039.012-2.284-.165-.102-.305.414-.312 1.146M96.4 241c-1.639 1.65-2.89 3-2.78 3 .11 0 1.541-1.35 3.18-3 1.639-1.65 2.89-3 2.78-3-.11 0-1.541 1.35-3.18 3m188.258-1.893c-.104.168.232.505.748.748.858.405.897.379.469-.306-.496-.795-.907-.944-1.217-.442m-2.485 1.312c-.425.154-.858.203-.961.109-.326-.296.93-.888 1.342-.633.216.134.045.369-.381.524m-.773 1.181c.136.22.161.4.056.4-.105 0-.477.11-.828.245-.466.179-.571.071-.39-.4.28-.73.795-.839 1.162-.245m35.813.184c-.452.545-.427.596.177.365.586-.225.658-.111.437.69-.223.81-.196.851.174.261.648-1.034-.051-2.203-.788-1.316m-33.627.833c-.362.436-.387.742-.086 1.043.301.301.407.208.363-.317-.048-.564.164-.711.881-.61.599.084.846-.026.676-.3-.383-.62-1.238-.534-1.834.184m-131.486.081c1.925.073 5.075.073 7 0 1.925-.073.35-.133-3.5-.133s-5.425.06-3.5.133m124.968 3.967c-.118.118-.426.085-.684-.075-.348-.215-.329-.377.073-.627.534-.332 1.051.263.611.702m-.538 1.096c.118.309-.035.894-.34 1.3-.508.677-.548.63-.472-.56.086-1.362.447-1.691.812-.74m3.655 7.139L278.2 257l2.1-1.985c1.155-1.092 2.1-2.037 2.1-2.1 0-.298-.371.034-2.215 1.985m-47.685 1.776c.385.1 1.015.1 1.4 0 .385-.101.07-.183-.7-.183s-1.085.082-.7.183m-9 .806c.495.096 1.305.096 1.8 0 .495-.095.09-.173-.9-.173s-1.395.078-.9.173M123.8 260c1.306 1.32 2.465 2.4 2.575 2.4.11 0-.869-1.08-2.175-2.4-1.306-1.32-2.465-2.4-2.575-2.4-.11 0 .869 1.08 2.175 2.4m13.614-.507c-2.481 3.652-.134 8.935 4.186 9.423 1.496.168 1.631.133.8-.207-3.936-1.613-5.402-3.361-5.365-6.399.013-1.087.282-2.192.633-2.6.785-.913 1.237-1.71.97-1.71-.115 0-.666.672-1.224 1.493m126.448 1.749c-.241.637-.623 1.155-.85 1.152-.846-.013-1.485-.714-1.312-1.442.157-.661.227-.633.579.233l.402.985.459-.859c.253-.472.463-1.185.466-1.585.005-.559.085-.601.35-.184.199.314.159 1.029-.094 1.7m-16.703.738c-.956 3.191 1.276 6.82 4.195 6.82.356 0 .646.136.646.303 0 1.638 5.777-1.095 6.835-3.234.237-.478-.051-.28-.638.439-3.823 4.684-11.205 1.573-10.46-4.408.242-1.939.017-1.908-.578.08m-98.666.82c0 .77.082 1.085.183.7.1-.385.1-1.015 0-1.4-.101-.385-.183-.07-.183.7m122.482 1.3-1.175 1.3 1.3-1.175c.715-.646 1.3-1.231 1.3-1.3 0-.309-.33-.037-1.425 1.175m-3.971 3.496c-.63.658-1.069 1.26-.975 1.338.094.078.684-.46 1.31-1.196 1.415-1.661 1.206-1.75-.335-.142M103.633 268.9c.092.055.707.55 1.367 1.1l1.2 1-.97-1.1c-.533-.605-1.148-1.1-1.366-1.1-.219 0-.322.045-.231.1m129.167 1.382c.33.121 1.05.602 1.6 1.069l1 .849-.97-1.1c-.533-.605-1.253-1.086-1.6-1.068-.539.027-.544.063-.03.25m-22.889 3.211c.94.085 2.38.084 3.2-.002.819-.086.049-.155-1.711-.154-1.76.002-2.43.072-1.489.156m28.154 2.389c.617 1.078.776.954-2.865 2.231-8.513 2.987-19.021 4.719-30.584 5.042l-8.784.245-2.139 2.771c-1.78 2.306-2.034 2.83-1.517 3.12.748.418 15.514.566 18.624.186 9.429-1.152 17.635-2.937 25.111-5.463 5.633-1.904 4.93-1.822 6.178-.714 1.285 1.142 2.033 2.579 1.657 3.187-.16.259.282.063.982-.436 1.625-1.157 1.742-.824-1.628-4.614-1.595-1.793-3.494-3.975-4.219-4.849-.726-.873-1.093-1.191-.816-.706m49.113 2.418-1.378 1.5 1.5-1.378c.825-.759 1.5-1.434 1.5-1.5 0-.306-.338-.018-1.622 1.378M115.8 282c1.971 1.98 3.673 3.6 3.783 3.6.11 0-1.412-1.62-3.383-3.6s-3.673-3.6-3.783-3.6c-.11 0 1.412 1.62 3.383 3.6m-5.4.2c.746.77 1.447 1.4 1.557 1.4.11 0-.411-.63-1.157-1.4-.746-.77-1.447-1.4-1.557-1.4-.11 0 .411.63 1.157 1.4m174.592 4.3-3.592 3.7 3.7-3.592c2.035-1.975 3.7-3.64 3.7-3.7 0-.29-.472.156-3.808 3.592m-137.201 2.4-3.191 3.3 3.3-3.191c3.065-2.963 3.482-3.409 3.191-3.409-.061 0-1.546 1.485-3.3 3.3m-33.391-2.775c0 .069.585.654 1.3 1.3l1.3 1.175-1.175-1.3c-1.095-1.212-1.425-1.484-1.425-1.175m163.578 1.375L276.6 289l1.5-1.378c1.396-1.284 1.684-1.622 1.378-1.622-.066 0-.741.675-1.5 1.5m-85.478 7.576c.385.1 1.015.1 1.4 0 .385-.101.07-.183-.7-.183s-1.085.082-.7.183m14.805.011c.609.092 1.509.09 2-.005.492-.095-.005-.171-1.105-.168-1.1.003-1.503.081-.895.173m-7.398.403c.719.089 1.799.087 2.4-.004s.013-.164-1.307-.162c-1.32.002-1.812.077-1.093.166m64.216 2.812c-.418.384-.572.582-.342.441.231-.141.779-.326 1.219-.409.511-.098.635-.257.342-.441-.252-.159-.801.025-1.219.409m-124.722 2.1c.268.434 2.599 1.732 2.599 1.448 0-.094-.641-.549-1.424-1.011-.783-.462-1.312-.659-1.175-.437m93.999 12.212c-1 .482-1.034.537-.2.334 1.133-.277 2.407-.927 1.8-.918-.22.003-.94.266-1.6.584m-48.5 8.062c.385.1 1.015.1 1.4 0 .385-.101.07-.183-.7-.183s-1.085.082-.7.183"/>
    <path fill="#041123" d="M188.4 57.945c0 .189-1.395.462-3.1.605-5.532.463-10.695 1.156-10.9 1.462-.11.165-2.267.602-4.793.971-2.527.37-4.687.816-4.8.992-.114.176-1.735.628-3.603 1.004s-3.488.808-3.6.959c-.112.151-1.464.601-3.004 1.001-1.54.399-2.86.891-2.933 1.093-.074.203-.434.371-.8.374-.824.007-4.183 1.156-4.463 1.527-.112.149-1.284.625-2.604 1.058-1.32.433-2.601.98-2.847 1.217-.246.236-1.236.683-2.2.994-.964.31-1.843.679-1.953.818-.11.139-1.043.572-2.074.961-1.031.39-1.957.923-2.058 1.185-.101.263-.922.722-1.825 1.02-.904.298-1.643.666-1.643.817 0 .152-.765.615-1.7 1.031-.935.416-2.049 1.073-2.475 1.461-.427.388-1.003.705-1.281.705-.277 0-.648.225-.824.5-.176.275-1.04.858-1.92 1.296-.88.438-1.744 1.023-1.92 1.3-.176.277-.571.504-.877.504-.307 0-.793.315-1.08.7-.288.385-1.14 1.044-1.893 1.464-1.403.783-2.173 1.356-3.94 2.936-.554.495-1.142.9-1.306.9-.165 0-1.174.826-2.242 1.835-1.068 1.01-2.167 1.962-2.441 2.116-1.442.809-13.701 12.609-13.701 13.188 0 .162-.879 1.125-1.954 2.14-1.074 1.014-2.019 2.016-2.1 2.227-.17.447-2.148 2.981-3.446 4.416-.495.547-.9 1.104-.901 1.236 0 .133-.541.872-1.202 1.642-.66.77-1.302 1.715-1.426 2.1-.124.385-.396.7-.604.7-.209 0-.68.63-1.048 1.4-.367.77-.805 1.4-.974 1.4-.169 0-.621.675-1.005 1.5-.383.825-.908 1.631-1.166 1.791-.258.159-.695.834-.97 1.5-.276.665-.651 1.209-.834 1.209-.183 0-.648.675-1.033 1.5-.385.825-1.024 1.735-1.419 2.023-.395.287-.718.788-.718 1.112 0 .325-.247.685-.549.801-.302.116-.879 1.01-1.282 1.987-.403.978-.858 1.777-1.011 1.777-.153 0-.601.9-.997 2-.395 1.1-.853 2-1.016 2-.164 0-.618 1.08-1.01 2.4-.392 1.32-.832 2.4-.979 2.4-.147 0-.584 1.17-.971 2.6-.387 1.43-.844 2.6-1.016 2.6-.171 0-.538 1.01-.814 2.245-.276 1.235-.722 2.465-.99 2.733-.268.268-.815 2.093-1.215 4.055-.4 1.962-.841 3.657-.981 3.767-.221.174-.715 2.747-1.458 7.6-.118.77-.376 1.503-.573 1.63-1.407.903-1.396 43.753.012 44.768.154.111.603 2.45.997 5.198s.857 5.088 1.029 5.2c.171.112.64 1.959 1.041 4.104.401 2.145.854 3.9 1.005 3.9.152 0 .597 1.53.99 3.4.392 1.87.852 3.4 1.022 3.4.17 0 .535 1.01.811 2.245s.694 2.45.929 2.7c.234.25.77 1.49 1.191 2.755.421 1.265.878 2.3 1.017 2.3.139 0 .589.99 1 2.2.411 1.21.881 2.2 1.043 2.2.162 0 .618.9 1.014 2 .395 1.1.845 2 1 2 .154 0 .604.9 1 2 .395 1.1.836 2 .979 2 .143 0 .603.764 1.021 1.697.419.933 1.076 2.013 1.461 2.4s.7.964.7 1.283c0 .319.225.724.5.9.275.176.858 1.04 1.296 1.92.438.88 1.023 1.744 1.3 1.92.277.176.504.571.504.877 0 .307.315.793.7 1.08.385.288 1.04 1.133 1.455 1.878.416.746 1.005 1.646 1.31 2 2.138 2.484 2.535 2.995 2.535 3.261 0 .165.802 1.149 1.781 2.186.98 1.037 1.835 2.036 1.9 2.219.501 1.407 15.714 16.606 17.121 17.105.195.07 1.066.79 1.934 1.6 2.091 1.952 3.288 2.936 4.687 3.852.636.417 1.508 1.085 1.937 1.485.43.401 1.109.832 1.511.959.401.128.729.371.729.542 0 .17.63.649 1.4 1.064.77.415 1.4.885 1.4 1.044 0 .16.669.608 1.487.996.817.388 1.807 1.026 2.2 1.419.392.392.977.713 1.299.713.322 0 .761.328.975.728.215.4 1.112.966 1.994 1.257.882.291 1.684.738 1.782.994.098.256.917.709 1.82 1.007.904.298 1.643.702 1.643.898 0 .196.675.638 1.5.981.825.344 1.59.752 1.7.907.11.156 1.009.602 1.999.992.989.39 1.889.827 2 .972.11.145.9.588 1.755.983l1.554.72-.232 2.243c-.127 1.234-.393 2.35-.591 2.481-.199.13-.687 1.947-1.085 4.037-.398 2.09-.863 3.892-1.032 4.005-.729.486-.875 5.031-.184 5.722 1.588 1.588 4.264 1.314 5.219-.533.34-.657.752-1.194.916-1.194.165 0 .654-.675 1.088-1.5.434-.825 1.105-1.735 1.491-2.023.386-.287.702-.788.702-1.112 0-.325.271-.694.602-.821.331-.127.908-.886 1.282-1.688.374-.801 1.003-1.691 1.398-1.979.395-.287.718-.776.718-1.086 0-1.074 1.363-1.387 3.947-.906 1.349.251 2.453.588 2.453.749 0 .16 1.755.605 3.9.988s3.99.816 4.1.963c.196.261 4.211.908 9 1.451 1.32.15 2.494.417 2.608.593.924 1.425 40.967 1.443 41.991.019.11-.154 2.631-.615 5.601-1.024 2.97-.409 5.49-.866 5.6-1.016.11-.149 1.719-.572 3.577-.94 1.857-.368 3.477-.814 3.6-.991.122-.178 1.708-.657 3.523-1.065 1.815-.409 3.3-.867 3.3-1.018 0-.151 1.17-.592 2.6-.979 1.43-.387 2.6-.83 2.6-.984 0-.154 1.125-.616 2.5-1.028 1.375-.411 2.701-.949 2.947-1.194s1.236-.7 2.2-1.011c.964-.31 1.843-.662 1.953-.781.452-.49 2.765-1.617 3.319-1.617.327 0 .686-.235.796-.522.11-.287.939-.766 1.842-1.064.904-.298 1.643-.675 1.643-.838 0-.163.809-.63 1.799-1.036.989-.407 1.799-.884 1.8-1.06 0-.177.631-.584 1.401-.906.77-.322 1.4-.743 1.4-.936 0-.193.405-.456.9-.584.495-.128 1.423-.688 2.062-1.244.639-.555 1.394-1.01 1.678-1.01.283 0 .75-.315 1.037-.7.288-.385 1.133-1.04 1.878-1.455.746-.416 1.646-1.005 2-1.31 2.456-2.113 2.99-2.535 3.208-2.535.135 0 .964-.627 1.841-1.392.878-.766 1.711-1.396 1.851-1.4.269-.008 2.771-2.28 6.184-5.615 1.121-1.096 2.201-2 2.4-2.009.199-.009 1.711-1.463 3.361-3.231 1.65-1.768 3.945-4.183 5.1-5.366 1.155-1.184 2.102-2.295 2.104-2.47.003-.174.633-.927 1.4-1.673.768-.746 1.396-1.53 1.396-1.743 0-.212.45-.74 1-1.172.55-.433 1-1.025 1-1.315 0-.291.273-.633.606-.761.333-.128.779-.687.99-1.243.211-.555.56-1.01.775-1.01.215 0 .707-.675 1.092-1.5.385-.825 1.024-1.735 1.419-2.023.395-.287.718-.773.718-1.08 0-.306.246-.701.546-.877.3-.176.845-.905 1.21-1.62.366-.715.804-1.3.974-1.3.17 0 .536-.628.814-1.396.278-.767.72-1.622.983-1.9.263-.277.837-1.267 1.276-2.199.438-.933.914-1.698 1.057-1.7.143-.003.583-.905.979-2.005.395-1.1.849-2 1.007-2 .158 0 .611-.855 1.006-1.9s.913-2.101 1.151-2.347c.239-.246.688-1.236.999-2.2.31-.964.686-1.843.834-1.953.304-.226 1.564-3.804 1.564-4.443 0-.228.237-.651.526-.94.29-.29.753-1.537 1.029-2.772.276-1.235.643-2.245.816-2.245.172 0 .632-1.485 1.022-3.3.391-1.815.866-3.4 1.057-3.523.191-.123.639-1.923.994-4 .356-2.077.788-3.867.961-3.977.172-.11.631-2.63 1.019-5.6.388-2.97.852-5.498 1.032-5.618 1.114-.744 1.112-38.047-.001-38.755-.197-.125-.669-2.387-1.048-5.027-.38-2.64-.829-4.89-.998-5-.168-.11-.621-1.955-1.005-4.1-.384-2.145-.842-3.9-1.018-3.9-.175 0-.63-1.44-1.01-3.2-.381-1.76-.808-3.2-.95-3.2-.143 0-.604-1.26-1.026-2.8-.422-1.54-.886-2.8-1.031-2.8-.145 0-.567-1.08-.937-2.4-.37-1.32-.811-2.4-.98-2.4-.168 0-.618-.99-.999-2.2-.382-1.21-.829-2.2-.994-2.2-.166 0-.625-.9-1.02-2-.396-1.1-.844-2-.997-2-.153 0-.612-.81-1.02-1.8-.409-.99-.85-1.802-.982-1.804-.132-.002-.595-.812-1.03-1.8-.434-.988-.902-1.796-1.039-1.796-.137 0-.587-.765-.999-1.7-.412-.935-.956-1.831-1.208-1.991-.253-.159-.685-.834-.96-1.5-.276-.665-.651-1.209-.834-1.209-.183 0-.648-.675-1.033-1.5-.385-.825-1.024-1.735-1.419-2.023-.395-.287-.718-.776-.718-1.086 0-.309-.36-.756-.8-.991-.44-.235-.8-.69-.8-1.011 0-.32-.36-.807-.8-1.082-.44-.275-.8-.713-.8-.974s-.45-.829-1-1.262c-.55-.432-1-.96-1-1.172 0-.213-.628-.997-1.396-1.743-.767-.746-1.397-1.485-1.4-1.643-.006-.427-14.771-15.113-15.195-15.113-.2 0-.599-.329-.886-.732-.288-.403-1.063-1.074-1.723-1.493-.66-.419-1.435-1.079-1.723-1.468-.287-.389-.776-.707-1.086-.707-.309 0-.756-.36-.991-.8-.235-.44-.682-.8-.991-.8-.31 0-.802-.315-1.092-.7-.597-.789-1.774-1.608-2.817-1.958-.385-.13-.7-.397-.7-.595 0-.198-.63-.66-1.4-1.028-.77-.367-1.4-.805-1.4-.974 0-.169-.669-.625-1.487-1.013-.817-.388-1.807-1.026-2.2-1.419-.392-.392-.974-.713-1.293-.713-.319 0-.724-.227-.9-.504-.176-.277-1.04-.862-1.92-1.3-.88-.438-1.726-.989-1.88-1.226-.155-.236-1.01-.67-1.9-.964-.891-.294-1.62-.661-1.62-.816 0-.155-.855-.608-1.9-1.007-1.045-.399-2.101-.927-2.347-1.173s-1.236-.703-2.2-1.016c-.964-.314-1.968-.777-2.231-1.031-.263-.254-1.298-.704-2.3-1-1.002-.296-1.822-.65-1.822-.787s-1.125-.584-2.5-.993c-1.375-.41-2.597-.883-2.716-1.052-.297-.421-3.511-1.531-4.434-1.531-.413 0-.75-.15-.75-.333 0-.183-1.8-.663-4-1.067-2.2-.404-4-.853-4-.998 0-.303-3.832-1.035-7.5-1.434-1.375-.149-2.5-.399-2.5-.556 0-.426-7.081-1.222-13.3-1.494-3.025-.133-5.5-.393-5.5-.579 0-.187-4.32-.339-9.6-.339-5.28 0-9.6.155-9.6.345m15.583 14.193c1.322 1.249 1.697 1.37 5.588 1.804 5.984.669 5.95.934-.371 2.872-2.31.708-5.232 1.647-6.493 2.088l-2.293.8 1.293 1.589c2.779 3.416 9.484 12.12 9.488 12.318.005.216-1.77.71-6.611 1.839l-2.816.656.164 3.748c.219 5.026.627 5.259-7.601-4.362-3.647-4.264-3.641-4.31.625-5.246 1.836-.402 3.546-.86 3.8-1.017.44-.272-.754-1.76-8.678-10.816-2.988-3.415-2.976-3.569.349-4.474 1.415-.386 4.373-1.229 6.573-1.874 5.152-1.512 5.305-1.51 6.983.075m-22.217 10.267c2.288 2.446 2.193 2.64-1.464 2.994-10.649 1.031-24.64 5.745-37.502 12.635-3.025 1.62-3.623 1.987-8.467 5.198-9.43 6.25-19.92 15.869-26.969 24.729-3.159 3.971-4.649 4.754-6.164 3.239-1.437-1.437-1.024-2.212 4.998-9.371 12.038-14.309 30.354-27.531 47.099-34 6.22-2.402 7.754-2.97 8.703-3.22.55-.145 2.44-.683 4.2-1.195 3.127-.91 11.499-2.786 13.245-2.968.245-.025 1.289.856 2.321 1.959M229 81.866c5.097 1.134 10.6 2.872 10.6 3.348 0 1.719-7.679 2.554-11.8 1.283-1.54-.474-4.528-1.149-6.64-1.498-6.199-1.027-7.976-1.836-5.288-2.411.62-.132 2.298-.657 3.728-1.167 2.843-1.013 2.852-1.012 9.4.445m35.38 2.567c2.707.581 2.55 1.288-.48 2.16-6.43 1.85-9.486 2.743-11.7 3.42-10.496 3.21-15.743 3.794-15.862 1.766-.022-.382 4.692-2.007 9.862-3.399 1.54-.415 5.5-1.56 8.8-2.546 6.745-2.014 6.612-1.995 9.38-1.401m-85.593 6.415c1.956 1.956 1.574 2.14-4.704 2.263l-5.651.111-.414 1.489c-.227.819-.415 1.766-.416 2.105-.001.339-.296 1.689-.656 3-.359 1.311-1.059 4.184-1.556 6.384-.496 2.2-1.388 5.98-1.98 8.4-.593 2.42-1.404 5.93-1.802 7.8-1.87 8.779-1.355 8.038-6.292 9.049-23.711 4.854-41.896 20.229-41.223 34.852.187 4.064.136 4.441-.934 6.899-4.944 11.349-5.675 30.147-1.679 43.2 1.096 3.582 1.151 4.159.705 7.457-1.632 12.07 16.808 25.364 43.124 31.09 2.37.516 4.394 1.023 4.497 1.126.176.175-2.727 12.43-5.499 23.22l-1.206 4.692-3.935 4.153c-5.433 5.734-5.36 5.714-10.46 2.838-6.638-3.744-9.106-5.618-9.106-6.916 0-1.289 1.151-6.592 2.355-10.852 1.207-4.272 1.192-4.329-1.839-7.023-3.391-3.013-12.116-11.848-12.116-12.269 0-.645-1.904-.266-5.6 1.115-12.618 4.714-11.263 4.963-16.246-2.987-4.505-7.186-4.604-6.515 1.933-13.117l5.286-5.339-1.739-5.294c-.957-2.912-1.962-5.924-2.233-6.694-.271-.77-.617-2.12-.768-3-.516-2.998-.33-2.863-4.342-3.162-2.03-.151-4.771-.523-6.091-.826-1.32-.304-3.531-.679-4.914-.835-1.522-.172-2.902-.589-3.5-1.059l-.986-.776.04-12.671c.053-16.814-.538-15.591 8.16-16.904 12.724-1.92 11.217-1.422 11.544-3.814.353-2.575 1.586-6.454 3.88-12.209l.739-1.856-4.281-4.144c-4.563-4.416-6.482-6.577-6.482-7.302 0-.534 3.759-6.952 6.291-10.742 2.269-3.394 1.044-3.505 17.037 1.542.542.171 1.974-.988 5.6-4.534 2.68-2.62 6.357-5.981 8.171-7.469 3.655-2.999 3.49-2.473 2.219-7.039-1.083-3.892-2.118-8.427-2.118-9.278 0-1.16.998-1.917 7.097-5.385 6.212-3.531 5.684-3.549 10.077.335 6.489 5.737 5.822 5.565 11.89 3.062l2.065-.852.834-3.641c.459-2.002 1.017-4.631 1.24-5.841.224-1.21.656-3.1.96-4.2.305-1.1.77-3.2 1.034-4.667.766-4.249 1.412-4.615 8.272-4.687l4.469-.046 1.249 1.248m49.313-.391c1.234.655.77.998-2.597 1.921l-3.297.904-1.303-1.508c-.717-.829-1.303-1.679-1.303-1.888 0-.469 7.489.034 8.5.571m39.837 9.176c.585.459 2.503 1.844 4.263 3.079 11.479 8.055 27.673 24.537 26.803 27.279-.828 2.609-3.015 2.406-5.37-.497-8.044-9.914-15.743-17.054-27.826-25.811-1.983-1.436-1.993-1.891-.087-3.983.995-1.093.91-1.091 2.217-.067m-22.529 6.042c.308.308-.429 1.507-8.5 13.833-3.13 4.78-6.028 9.232-6.439 9.892-.921 1.477-4.129 6.447-8.264 12.8-3.006 4.619-4.087 6.3-7.268 11.3-.805 1.265-3.117 4.82-5.138 7.9-2.022 3.08-4.155 6.365-4.742 7.3l-1.067 1.7h14.405c10.568 0 14.405.122 14.405.459 0 .39-7.506 11.755-23.989 36.323-1.986 2.96-3.611 5.525-3.611 5.7 0 .175 5.76.318 12.8.318 8.433 0 12.8.139 12.8.408 0 .588-1.45 2.744-7.749 11.523-6.607 9.208-8.129 11.316-11.651 16.134-1.98 2.709-4.05 5.572-4.6 6.363-.55.79-3.07 4.284-5.6 7.764-4.548 6.256-7.317 10.099-9.518 13.208-.623.88-3.011 4.21-5.308 7.4-2.296 3.19-4.445 6.184-4.775 6.653-.329.469-1.842 2.629-3.362 4.8s-3.556 5.027-4.524 6.347c-5.154 7.024-12.291 16.972-14.334 19.98-2.133 3.139-3.459 4.431-2.792 2.72.15-.385.725-2.32 1.277-4.3.552-1.98 1.731-6.12 2.62-9.2.888-3.08 1.864-6.744 2.168-8.143.305-1.398.646-2.692.759-2.875.113-.183.663-2.098 1.223-4.257.559-2.159 1.468-5.635 2.02-7.725.551-2.09 1.238-4.815 1.527-6.056.289-1.242.81-3.132 1.158-4.2.347-1.069 1.255-4.374 2.017-7.344 1.254-4.887 6.624-25.541 7.981-30.69.722-2.739 1.965-2.51-13.604-2.51H152l.007-.9c.004-.495.283-2.16.62-3.7 1.037-4.737 2.415-11.088 5.163-23.8 1.451-6.71 2.915-13.46 3.253-15 1.147-5.224 2.602-11.984 3.573-16.6.532-2.53 1.437-6.76 2.012-9.4.575-2.64 1.299-6.14 1.609-7.777.311-1.637.825-3.977 1.143-5.2.317-1.223.951-4.023 1.407-6.223.457-2.2 1.189-5.62 1.626-7.6 2.693-12.177 3.672-16.599 4.772-21.552.678-3.054 1.34-5.726 1.471-5.939.273-.442 66.308-.279 66.752.166m15.9 3.385c9.303 5.827 8.991 5.359 7.448 11.165-.917 3.449-1.956 8.122-1.956 8.796 0 .232 1.755 1.852 3.9 3.6s5.739 5.038 7.987 7.309l4.088 4.131 6.449-2.032c10.409-3.278 9.331-3.633 14.356 4.721 4.189 6.964 4.336 6.192-2.504 13.139-4.525 4.596-4.787 4.949-4.365 5.876 1.172 2.572 4.489 13.229 4.489 14.423 0 .569.594.729 4.4 1.184 5.604.67 12.126 1.892 12.94 2.425 1.766 1.157 1.86 1.937 1.86 15.393v12.752l-.986.776c-.598.47-1.978.887-3.5 1.059-1.383.156-3.607.536-4.943.845-1.335.309-3.977.681-5.87.827l-3.442.264-.986 3.244c-.542 1.784-1.097 3.73-1.232 4.325-.136.596-.453 1.586-.703 2.2-.876 2.147-2.382 6.325-2.609 7.236-.192.768.614 1.77 4.916 6.112 6.421 6.481 6.508 6.819 3.038 11.847-.426.618-1.457 2.203-2.289 3.523-3.191 5.057-2.984 5.022-11.658 1.972-3.485-1.226-6.696-2.307-7.136-2.403-.609-.134-2.69 1.678-8.702 7.575l-7.903 7.75 1.06 3.953c3.204 11.956 3.216 11.879-2.455 15.647-8.448 5.613-8.603 5.621-13.678.711-4.101-3.967-4.719-4.263-6.46-3.089-8.806 5.938-38.84 10.908-53.862 8.912-4.471-.595-4.521-.648-2.694-2.89.822-1.009 2.786-3.538 4.364-5.622l2.871-3.787 8.394-.252c12.533-.376 32.91-4.084 34.236-6.23.293-.474-5.196-6.202-5.665-5.912-2.889 1.785-30.11 4.433-30.104 2.927.001-.254 1.306-2.196 2.9-4.315 1.594-2.119 3.888-5.239 5.098-6.934 1.21-1.694 2.505-3.486 2.879-3.983.644-.857 1.03-.915 7.6-1.153 38.671-1.4 66.889-15.885 66.287-34.026-.059-1.769.271-3.638 1.183-6.718 3.823-12.905 3.024-30.204-1.983-42.933-1.493-3.795-1.58-4.256-1.688-9-.197-8.635-3.131-13.301-13.078-20.799-5.886-4.437-19.793-10.993-25.321-11.937-2.208-.376-2.196-.659.172-4.291 1.138-1.745 3.417-5.243 5.065-7.773 1.648-2.53 3.761-5.77 4.695-7.2.934-1.43 1.905-3.005 2.158-3.5.585-1.147.879-1.131 2.939.16M195.8 124.165c-4.538 2.017-4.903 7.969-.664 10.85 4.486 3.048 10.637-1.595 9.187-6.935-.944-3.472-5.161-5.41-8.523-3.915m-37.27 12.098c.145.145.098.462-.103.704-.201.243-.738 1.863-1.193 3.601-.455 1.737-.874 3.185-.931 3.217-.057.032-.913.399-1.903.816-3.969 1.671-4.238 5.216-.503 6.636.928.353.977.511.757 2.47-.129 1.151-.239 2.395-.244 2.764-.015.997-1.127 1.929-2.301 1.929-4.223 0-4.53 3.662-.537 6.4l.875.6-1.049 4.8c-.577 2.64-1.405 6.6-1.839 8.8-1.405 7.117-1.405 7.118-2.944 6.829-1.616-.303-9.449-2.821-10.477-3.367-.406-.216-1.818-.891-3.138-1.501-18.046-8.337-18.825-21.569-2-33.944 7.047-5.183 25.782-12.501 27.53-10.754m89.909 1.304c31.296 9.767 41.219 31.278 19.561 42.405-8.012 4.116-22.515 7.981-30.1 8.02-1.877.01-1.871-.251.06-2.694.859-1.086 3.136-4.297 5.062-7.136 1.926-2.839 5.184-7.625 7.24-10.635 6.36-9.311 6.419-9.259-10.869-9.527l-12.924-.2 2.265-3.499c2.731-4.217 2.556-4.154 9.712-3.483 6.416.602 7.622.238 7.881-2.384.217-2.192-1.991-3.674-6.715-4.508-3.868-.682-3.87-.688-1.287-4.593l2.262-3.421 2.045.24c1.125.132 3.738.769 5.807 1.415m-163.57 11.895c1.02.923.957 1.319-1.032 6.524-2.167 5.671-3.547 10.552-4.848 17.157-1.197 6.077-2.687 7.901-4.76 5.828-1.491-1.49.946-13.09 4.574-21.771.69-1.65 1.535-3.81 1.879-4.8 1.112-3.198 2.682-4.3 4.187-2.938m232.884 2.052c5.263 10.425 9.28 25.939 7.143 27.586-1.878 1.447-3.47-.127-4.092-4.045-.624-3.938-4.215-16.006-6.359-21.37-1.978-4.949.939-6.863 3.308-2.171m-50.153-1.703c0 .501 4.556 4.94 4.871 4.745.331-.205-.998-2.094-2.852-4.056-.761-.805-2.019-1.235-2.019-.689m5.053 7.669c-.124.124-.076.517.105.873 2.642 5.177-1.551 12.161-9.977 16.62-5.436 2.876-5.066 4.446.447 1.898 7.335-3.391 11.937-8.409 11.963-13.045.018-3.184-1.615-7.268-2.538-6.346m-152.369 24.509c4.102 4.793 19.171 12.411 24.549 12.411.436 0 .901.283 1.033.628.235.611-2.939 16.919-3.454 17.753-.808 1.308-15.154-5.517-18.712-8.901l-1.3-1.237v-6.098c0-3.887-.155-6.193-.427-6.361-.655-.405-.667-.335-.904 5.359-.251 6.024-.362 6.331-1.691 4.668-1.389-1.738-1.779-4.273-1.773-11.531.008-8.992.231-9.55 2.679-6.691m160.036-1.109c1.533 1.533.341 18.168-1.428 19.92-.539.534-.573.512-.309-.2.402-1.083.807-13 .442-13-.16 0-1.041.606-1.958 1.346-.917.74-2.441 1.85-3.388 2.467l-1.721 1.121.072 6.752c.083 7.788.499 6.94-4.66 9.488-6.415 3.169-21.77 7.2-21.77 5.715 0-2.039 4.402-6.089 6.618-6.089 2.88 0 4.012-.597 4.999-2.635 2.759-5.7-5.103-10.206-8.627-4.946l-.79 1.179-4.4.002c-2.42.002-7.14.083-10.49.18-7.006.203-6.927.243-5.017-2.497 1.648-2.365 1.106-2.205 9.707-2.86 17.478-1.33 37.631-8.954 41.175-15.577.517-.966.863-1.048 1.545-.366M120.2 210.747C123.608 214.87 136.095 222 139.908 222c.706 0 .661.364-1.107 8.889-.879 4.241-1.599 7.846-1.6 8.011-.006 1.637-9.923-3.303-13.701-6.824l-1.1-1.026v-6.045c0-5.799-.22-7.005-1.28-7.005-.176 0-.32 2.52-.32 5.6 0 5.987-.112 6.311-1.489 4.289-1.167-1.715-1.693-5.53-1.703-12.356-.011-7.554.114-7.784 2.592-4.786m160.357-.914c.628 1.636.248 15.153-.48 17.07-.807 2.124-2.014 3.662-1.488 1.897.164-.55.388-3.475.5-6.5.201-5.47.028-6.245-1.092-4.896-.276.332-1.738 1.426-3.249 2.431L272 221.661v13.491l-3.1 1.737c-10.428 5.844-25.575 9.647-40.6 10.195-7.212.263-7.023.398-4.389-3.127 2.779-3.719 8.519-11.664 10.662-14.757 2.446-3.532 2.428-3.522 7.427-4.167 6.602-.852 9.456-1.514 19.67-4.568 5.81-1.736 11.968-5.263 15.53-8.893 2.366-2.411 2.978-2.728 3.357-1.739m-203.186 9.195c.699.699.678.63 2.007 6.772 1.376 6.365 2.278 9.442 4.22 14.4 1.964 5.015 2.201 6.825.998 7.631-1.418.951-2.55-.054-3.866-3.431-.642-1.65-1.407-3.54-1.698-4.2-2.641-5.975-5.78-18.791-4.977-20.317.844-1.604 2.214-1.957 3.316-.855m247.459.202c1.002 1.002.915 1.782-1.042 9.37-1.194 4.632-1.767 6.407-2.968 9.2-.189.44-1.13 2.87-2.091 5.4l-1.746 4.6-1.466.123c-2.162.181-2.579-.841-1.469-3.602 2.542-6.322 5.209-15.202 6.221-20.721.878-4.784 2.547-6.384 4.561-4.37m-74.263 8.758c-1.576.637-2.967 2.744-2.967 4.495 0 3.997 3.861 6.644 7.185 4.925 5.817-3.008 1.848-11.874-4.218-9.42M162.8 242.794c0 2.426-1.024 4.081-2.394 3.869-4.717-.729-7.031-1.239-10.506-2.316-5.556-1.723-5.037-1.947 4.5-1.947 5.252 0 8.4.148 8.4.394m-22.292 14.999c-3.875 1.685-3.831 7.382.076 9.797 4.082 2.523 9.242-2.583 7.089-7.015-1.456-2.997-4.211-4.066-7.165-2.782m110.8 0c-2.66 1.156-3.88 4.717-2.527 7.371 2.351 4.607 7.99 4.282 9.842-.568 1.845-4.831-2.518-8.889-7.315-6.803m-145.257 12.693c11.877 14.164 24.747 25.036 37.974 32.08 2.672 1.422 2.895 1.803 2.343 3.994-.64 2.544-1.206 2.349-11.568-3.973-11.648-7.107-34-27.946-34-31.698 0-2.827 3.024-3.059 5.251-.403m192.184-1.089c1.012 1.544.491 2.588-3.735 7.49-14.515 16.837-31.681 29.553-48.7 36.075-1.54.591-3.25 1.265-3.8 1.499-8.983 3.824-28.688 7.891-30.32 6.259-1.531-1.531.4-4.32 2.989-4.32 4.098 0 16.856-3.271 25.931-6.648 19.656-7.313 35.071-18.379 50.232-36.057 5.067-5.908 5.995-6.447 7.403-4.298m-97.475 41.67c.05 4.628.17 4.933 1.928 4.933 1.626 0 1.645.438.19 4.4-.444 1.21-1.395 4.045-2.113 6.3-1.835 5.761-2.352 5.104-2.361-3l-.004-4.1H197c-.77 0-1.4-.168-1.4-.373 0-.679 2.885-9.696 4.04-12.627l.472-1.2.304 1c.167.55.322 2.65.344 4.667m-21.76 4.16c.88.224 3.035.627 4.788.896 3.552.544 4.602 1.467 4.073 3.578-.406 1.615-1.515 1.678-7.968.452-6.326-1.201-6.969-1.554-5.603-3.073.435-.484.902-1.195 1.038-1.58.28-.793 1.326-.871 3.672-.273"/>
    <path fill="#748494" d="M201.714 101.4c.003 1.1.081 1.503.173.895.092-.609.09-1.509-.005-2-.095-.492-.171.005-.168 1.105M117.6 116.2c-.972.99-1.677 1.8-1.567 1.8.11 0 .995-.81 1.967-1.8.972-.99 1.677-1.8 1.567-1.8-.11 0-.995.81-1.967 1.8m165.4 1.4c1.083 1.1 2.06 2 2.17 2 .11 0-.687-.9-1.77-2s-2.06-2-2.17-2c-.11 0 .687.9 1.77 2m-161.8 21.8c-.972.99-1.677 1.8-1.567 1.8.11 0 .995-.81 1.967-1.8.972-.99 1.677-1.8 1.567-1.8-.11 0-.995.81-1.967 1.8m24.47 3.837c-.393.629-.771.774-1.52.586-1.209-.303-3.823.135-3.54.593.112.181.02.442-.203.58-.224.138-.407.061-.407-.172 0-.233-.174-.424-.387-.424-.214 0-.284.27-.158.6.146.38-.005.6-.412.6-.354 0-.643.191-.643.424 0 .233-.176.314-.392.181-.215-.133-.8-.015-1.3.262-.499.278-1.073.511-1.275.519-.201.008-.442.24-.534.517-.129.388.082.408.922.089.6-.228 1.176-.328 1.282-.222.106.105.446-.062.756-.372s.874-.465 1.253-.343c.563.18.583.146.109-.19-.663-.47 1.202-1.145 1.926-.698.419.259 2.489-.522 2.898-1.093.134-.188.36-.324.502-.301.141.023.696-.069 1.232-.203 1.861-.467 1.979.314.172 1.133-2.194.994-2.095.88-1.584 1.836.358.669.296.851-.367 1.061-.44.14-.8.513-.8.83 0 .472.142.488.782.089 1.205-.753 2.201 1.737 1.029 2.575-.238.17-.116.296.289.3.513.004.7-.316.7-1.202 0-1.106.089-1.185 1.058-.942.974.245 1.041.182.855-.792-.157-.821-.044-1.058.505-1.058.52 0 .649-.221.489-.834-.144-.55-.317-.673-.509-.363-.18.291-.367.072-.491-.576-.168-.88-.081-1.009.547-.81.41.13.746.067.746-.141 0-.389-.774-1.154-1.291-1.277-1.562-.371-1.83-.541-1.639-1.038.318-.829-.003-.681-.6.276M145.6 147c.669.807 1.5.758 1.724-.1.166-.633.188-.635.23-.022.025.372-.398 1.182-.941 1.8-.543.617-.993.908-1 .646-.007-.262.186-.6.43-.751.283-.174.043-.617-.662-1.223-.608-.523-.919-.95-.692-.95.227 0 .637.27.911.6m-13.737 2.247c-.845.854-1.87 1.553-2.276 1.553-.407 0-.846.172-.976.383-.13.21-.546.283-.924.162-.583-.187-.597-.155-.087.211.585.421.527.491-.495.594-.588.059-.941 1.45-.368 1.45.218 0 .456-.135.53-.3.073-.165 1.206-1.02 2.518-1.9 2.877-1.93 4.215-3.032 4.215-3.472 0-.608-.593-.242-2.137 1.319m17.337.353c0 .22.191.4.424.4.233 0 .296.225.141.5-.216.383-.165.391.221.035.278-.256.383-.661.236-.9-.338-.546-1.022-.569-1.022-.035m-67.31.644c-.16.159-.291.574-.292.923-.002.348-.272 1.149-.6 1.779-.692 1.326-.782 1.929-.157 1.054.338-.473.382-.393.21.38-.137.615.095 1.486.624 2.342l.842 1.362.579-1.342c.318-.738.625-1.522.681-1.742.056-.22.204-.67.327-1 .305-.813 1.096-3.291 1.096-3.435 0-.063-.315-.111-.7-.106-.385.006-1.065-.106-1.51-.248-.446-.141-.941-.127-1.1.033m64.826.679c.121.46.416.635.814.482.515-.197.502-.103-.071.53-.669.739-.654.78.37 1.036 1.441.362.887.801-.943.747-.817-.025-1.172.042-.787.148.566.156.616.345.267.997-.237.443-.326.91-.198 1.038.127.128.232.029.232-.22 0-1.167 1.4-1.205 1.484-.041.046.638-.117 1.16-.362 1.16-.249 0-.153.324.217.732.364.403.554.841.422.974-.691.691.377 1.043 1.462.482 1.155-.597 1.663-1.26.675-.881-.276.106-.733-.055-1.016-.357-.297-.318-.338-.55-.098-.55.229 0 .416-.199.416-.443 0-.243-.261-.343-.58-.22-.354.136-.505.03-.389-.273.104-.272.588-.525 1.074-.562.487-.037.707.06.49.216-.217.155-.422.607-.454 1.004-.072.875 1.49.799 1.782-.086.136-.41-.019-.485-.568-.276-.592.225-.651.182-.272-.199.379-.383.632-.366 1.177.076.381.31.568.353.414.097-.153-.256-.053-.557.224-.668.276-.112-.012-.217-.641-.234-.82-.023-1.081-.194-.923-.605.154-.402-.015-.527-.568-.42-.48.092-.685-.014-.525-.273.144-.233.013-.597-.29-.809-.426-.298-.438-.432-.051-.589 1.25-.507-.334-2.751-1.936-2.742-.802.005-.994.17-.848.729m85.984.166c.715.089 1.885.089 2.6 0 .715-.088.13-.161-1.3-.161-1.43 0-2.015.073-1.3.161m83.754.789c-.328.352-.91.494-1.462.356-1.039-.261-.983 1.241.061 1.642.298.114.448.361.332.548-.222.36.826 3.176 1.182 3.176.114 0 .092-.301-.049-.669-.192-.502-.094-.607.392-.421.48.184.584.08.4-.4-.186-.486-.081-.584.421-.392.388.149.669.062.669-.207 0-.255.273-.115.607.313.558.715.567.686.115-.369-.271-.63-.559-.944-.641-.698-.082.246-.314.346-.516.221-.222-.137-.218-.505.009-.93.577-1.077-.76-2.986-1.52-2.17M82.629 156c0 .44-.142.8-.315.8-.173 0-.314-.36-.314-.8 0-.44.141-.8.314-.8.173 0 .315.36.315.8m144.571 1.7c0 .165 3.33.3 7.4.3s7.4-.135 7.4-.3c0-.165-3.33-.3-7.4-.3s-7.4.135-7.4.3m-129 1.9c1.083 1.1 2.06 2 2.17 2 .11 0-.687-.9-1.77-2s-2.06-2-2.17-2c-.11 0 .687.9 1.77 2m156.2 1.226c0 .455-.19 1.22-.422 1.7-.408.844-.401.848.2.098.574-.718.881-2.624.422-2.624-.11 0-.2.372-.2.826m-102.971 6.603c-.148.586-.191 1.143-.097 1.237.095.094.292-.308.439-.895.148-.586.191-1.143.097-1.237-.095-.094-.292.308-.439.895m118.112 1.871c-.729.935-1.006 1.446-.615 1.136.777-.617 2.447-2.836 2.135-2.836-.107 0-.79.765-1.52 1.7m5.034 5.6-1.175 1.3 1.3-1.175c.715-.646 1.3-1.231 1.3-1.3 0-.309-.33-.037-1.425 1.175m-72.675-.218c.495.096 1.305.096 1.8 0 .495-.095.09-.173-.9-.173s-1.395.078-.9.173m15.014-.034c.167.167 1.743.261 3.502.208 3.955-.117 4.243.039 3.236 1.746-.739 1.253-.739 1.798.002 1.798.177 0 .217-.272.089-.605-.161-.419-.048-.533.368-.374.402.154.778-.174 1.142-.995.298-.674.678-1.226.845-1.226.166 0 .302-.144.302-.321 0-.176-2.203-.368-4.895-.427-2.691-.059-4.757.029-4.591.196m40.786 2.108c-1.278.578-1.733 1.244-.851 1.244.292 0 .257.234-.1.669-.493.601-.447.643.451.406.55-.145 1.129-.267 1.287-.27.159-.003.183-.277.056-.61-.128-.333-.007-.877.269-1.21.704-.848.395-.911-1.112-.229m-5.5 3.644c-.292.473.099.473 1.2 0 .771-.331.769-.345-.076-.372-.482-.015-.988.152-1.124.372m-134.445 9.4c.001 2.86.065 3.978.142 2.483.077-1.494.077-3.834-.001-5.2-.078-1.365-.141-.143-.141 2.717m160.531-3.895c-.907 1.002-.87 1.135.314 1.135 1.069 0 1.097-.05.657-1.166-.274-.696-.314-.695-.971.031M320.165 194c0 3.85.06 5.425.133 3.5.073-1.925.073-5.075 0-7-.073-1.925-.133-.35-.133 3.5m-200.753-6.019c-.369.597.197 10.467.643 11.219.228.385.35-.473.339-2.4-.009-1.65.1-4.02.241-5.266.26-2.284-.551-4.64-1.223-3.553m161.13 3.819c-.001 1.98.066 2.84.15 1.912.084-.928.085-2.548.003-3.6-.083-1.052-.152-.292-.153 1.688m-160.655-.305c-.092.608-.17.205-.173-.895-.003-1.1.073-1.597.168-1.105.095.491.097 1.391.005 2m149.513.105c-.292.473.099.473 1.2 0 .771-.331.769-.345-.076-.372-.482-.015-.988.152-1.124.372m21.493 2c0 .77.082 1.085.183.7.1-.385.1-1.015 0-1.4-.101-.385-.183-.07-.183.7m-24.824-.283c-.666.803-1.059 5.772-.538 6.802.244.485.514 1.511.598 2.281.085.77.163-.734.174-3.341.012-2.88.192-4.914.458-5.18.242-.242.439-.583.439-.759 0-.493-.653-.379-1.131.197m2.731 3.65c0 .348.285.633.633.633.349 0 .562-.214.475-.475-.247-.742-1.108-.865-1.108-.158M122.528 199.6c0 1.43.073 2.015.161 1.3.089-.715.089-1.885 0-2.6-.088-.715-.161-.13-.161 1.3m146.562-1.153c.36.362.373.636.052 1.023-.321.386-.318.53.009.53.247 0 .449-.075.449-.167 0-.092.1-.429.223-.749.13-.338-.079-.696-.5-.856-.572-.218-.621-.172-.233.219m-6.997 8.353c0 .77.082 1.085.183.7.1-.385.1-1.015 0-1.4-.101-.385-.183-.07-.183.7m-142.611 13.6c.102 1.21.251 3.166.331 4.346.238 3.506.587 2.865.587-1.079 0-2.017-.168-3.667-.373-3.667-.206 0-.454-.405-.552-.9-.098-.495-.095.09.007 1.3m154.718-.988c-1.565 1.283-1.143 1.274.6-.012.745-.55 1.185-.994.978-.986-.208.008-.918.457-1.578.998m6.337 1.988c.002 1.76.072 2.43.156 1.489.085-.94.084-2.38-.002-3.2-.086-.819-.155-.049-.154 1.711m-11.337-.77c-.55.306-1.957.947-3.126 1.424-1.425.581-1.956.972-1.61 1.186.462.285.572 1.304.749 6.942.013.429.218 1.014.455 1.3.309.372.303.518-.019.518-.247 0-.449.281-.449.624 0 .343.165.521.366.397.201-.124.447 0 .547.277.1.276.187-.161.194-.971.007-.811.132-1.666.277-1.9.145-.235.086-.427-.131-.427s-.477.315-.577.7c-.165.631-.188.633-.23.024-.025-.372.134-.788.354-.924.22-.136.387-.642.372-1.124-.027-.84-.041-.843-.343-.076-.227.577-.316.31-.317-.959-.003-1.693.018-1.723.552-.8.49.848.548.866.499.159-.251-3.648.029-5 1.037-5 .788 0 1 .203 1 .957 0 .527.277 1.064.616 1.194.493.189.602-.062.549-1.257-.036-.822.066-1.809.227-2.194.339-.808.334-.808-.992-.07m-146.643 4.97c0 2.97.063 4.185.14 2.7.077-1.485.077-3.915 0-5.4-.077-1.485-.14-.27-.14 2.7m139.889-2.133c-.025.257-.162.797-.305 1.2-.201.569-.147.63.238.275.273-.251.41-.791.305-1.2-.105-.408-.212-.532-.238-.275m6.382 3.804c.019 2.008.136 2.677.372 2.129.294-.684.348-.699.372-.1.015.385.183.7.373.7.189 0 .258-.448.154-.995-.105-.548-.35-.897-.545-.777-.195.121-.354.039-.354-.181s.18-.511.4-.647c.597-.369.483-1.774-.2-2.457-.533-.533-.597-.275-.572 2.328m2.865-.871c0 .77.082 1.085.183.7.1-.385.1-1.015 0-1.4-.101-.385-.183-.07-.183.7m7.513.7c.005.801.103.947.363.536.196-.31.264-.805.151-1.1-.324-.846-.521-.63-.514.564m-17.2 2.8c.004.956.127 1.309.34.974.308-.487.154-2.474-.193-2.474-.084 0-.15.675-.147 1.5m6.945 3.067c.112 1.338.214 2.694.226 3.013.017.419.144.459.46.143.316-.316.308-.678-.028-1.306-.362-.676-.348-1.01.063-1.508.416-.504.422-.675.028-.807-.275-.093-.5-.344-.5-.559 0-.215.18-.279.4-.143.22.136.4-.093.4-.51 0-.42-.279-.757-.626-.757-.522 0-.592.406-.423 2.434m28.632 2.733c1.658 1.766 2.017 2.084 2.017 1.783 0-.064-.855-.919-1.9-1.9l-1.9-1.783 1.783 1.9M82 238.776c0 .233-.405.429-.9.436-.806.011-.827.055-.197.422.387.225.88.3 1.096.167.215-.133.295.01.176.319-.232.605-2.175.457-2.175-.167 0-.194-.159-.353-.353-.353-.194 0-.135.585.132 1.3 2.345 6.292 3.683 8.08 4.868 6.5.33-.44.517-1.16.417-1.6-.281-1.23-1.092-3.476-1.708-4.732-.306-.623-.556-1.378-.556-1.677 0-.299-.18-.655-.4-.791-.22-.136-.4-.057-.4.176m235.2.824c0 .22.225.421.5.447.275.026-.04.168-.7.314-1.213.269-1.365.699-.791 2.239.29.778.282.779-.293.041-.577-.74-.597-.738-.811.078-.174.668.006.886.895 1.081.855.188 1.067.424.911 1.018-.111.425-.361.674-.556.554-.195-.121-.355-.029-.355.204 0 1.992 2.525-1.881 3.375-5.176l.258-1-.559.954-.56.954-.265-1.054c-.251-1.003-1.049-1.5-1.049-.654m.801 3.5c-.37.59-.397.549-.174-.261.221-.801.149-.915-.437-.69-.604.231-.629.18-.177-.365.737-.887 1.436.282.788 1.316m-171.601-.369c0 .182.54.251 1.2.154.66-.097 1.2-.245 1.2-.33 0-.085-.54-.155-1.2-.155-.66 0-1.2.149-1.2.331m168.2 4.069c-.325.526.11 1.2.775 1.2.675 0 1.627-1.131 1.26-1.498-.153-.153-.446-.014-.651.31-.252.398-.374.427-.378.088-.007-.598-.658-.663-1.006-.1m-90.9.291c.825.087 2.175.087 3 0 .825-.086.15-.157-1.5-.157s-2.325.071-1.5.157m-2.995 10.392c.497.096 1.217.092 1.6-.008.382-.1-.025-.179-.905-.174-.88.004-1.193.086-.695.182M274.4 261c-.972.99-1.677 1.8-1.567 1.8.11 0 .995-.81 1.967-1.8.972-.99 1.677-1.8 1.567-1.8-.11 0-.995.81-1.967 1.8m-26.544-.116c-.135.504-.228 1.366-.207 1.916.023.589.182.271.387-.775.367-1.873.237-2.698-.18-1.141M130.8 266.525c0 .069.585.654 1.3 1.3l1.3 1.175-1.175-1.3c-1.095-1.212-1.425-1.484-1.425-1.175M282.989 282.5l-2.789 2.9 2.9-2.789c2.694-2.591 3.083-3.011 2.789-3.011-.061 0-1.366 1.305-2.9 2.9m-74.889.587c.605.091 1.595.091 2.2 0 .605-.092.11-.167-1.1-.167-1.21 0-1.705.075-1.1.167m-11.8 12.395c.495.096 1.305.096 1.8 0 .495-.095.09-.173-.9-.173s-1.395.078-.9.173m7.605.001c.497.096 1.217.092 1.6-.008.382-.1-.025-.179-.905-.174-.88.004-1.193.086-.695.182m-4.832 13.817c-.379 1.155-.979 3.18-1.333 4.5-.355 1.32-.891 2.886-1.192 3.48-.815 1.606-.694 1.86.952 1.996l1.5.124.2 5.4.2 5.4.73-2.8c.402-1.54.969-3.34 1.261-4 .292-.66.763-2.1 1.048-3.2.284-1.1.751-2.45 1.037-3 .51-.981.488-1.004-1.178-1.2l-1.698-.2-.114-4.3c-.127-4.818-.409-5.257-1.413-2.2"/>
    <path fill="#566676" d="M190 78.525c0 .069.585.654 1.3 1.3L192.6 81l-1.175-1.3C190.33 78.488 190 78.216 190 78.525m10.233 1.022c-.118.19.187.685.676 1.1l.891.753-.724-.859c-.56-.662-.605-.906-.2-1.068.351-.141.367-.22.048-.241-.262-.018-.573.124-.691.315M180.8 81.725c0 .069.585.654 1.3 1.3l1.3 1.175-1.175-1.3c-1.095-1.212-1.425-1.484-1.425-1.175m-10.084 8.172c1.383.078 3.543.077 4.8-.002 1.256-.079.124-.143-2.516-.142-2.64 0-3.668.065-2.284.144m50.789-.014c.497.096 1.217.092 1.6-.008.382-.1-.025-.179-.905-.174-.88.004-1.193.086-.695.182M146 91c-.99.53-1.62.964-1.4.964.22 0 1.21-.434 2.2-.964.99-.53 1.62-.964 1.4-.964-.22 0-1.21.434-2.2.964m20.001-.002c-.515.55-.862 1.066-.769 1.148.092.082.587-.368 1.098-.999 1.146-1.412.944-1.503-.329-.149M221.17 92.1c.533.605 1.253 1.086 1.6 1.068.539-.027.544-.063.03-.25-.33-.121-1.05-.602-1.6-1.069l-1-.849.97 1.1m15.028-.497c-.278.449.894 1.039 1.286.646.137-.137-.096-.252-.517-.255-.642-.005-.669-.07-.167-.394.361-.233.41-.39.124-.394-.262-.003-.589.175-.726.397m-56.598.719c0 .315-1.759.49-5.667.567-4.201.082-5.694.243-5.77.621-.057.281-.012.326.1.1.125-.25 2.36-.41 5.747-.41 5.104 0 6.636-.287 5.83-1.093-.132-.132-.24-.035-.24.215m22.093 6.078c0 .77.082 1.085.183.7.1-.385.1-1.015 0-1.4-.101-.385-.183-.07-.183.7m-4.893.125c0 .069.585.654 1.3 1.3l1.3 1.175-1.175-1.3c-1.095-1.212-1.425-1.484-1.425-1.175m68.929 1.175c-.445.495-.95 1.17-1.122 1.5-.172.33.228-.026.889-.791 1.1-1.274 1.266-1.342 1.953-.8.692.544.708.536.202-.109-.712-.908-.946-.884-1.922.2m-140.007 3.729-1.122 1.029 1.3-.904c.715-.497 1.3-.961 1.3-1.029 0-.316-.442-.045-1.478.904m52.94 2.071c-.169.272 20.939.269 48.538-.008 5.83-.058-2.664-.148-18.876-.199-16.212-.051-29.56.042-29.662.207m102.538 4.225c0 .069.585.654 1.3 1.3l1.3 1.175-1.175-1.3c-1.095-1.212-1.425-1.484-1.425-1.175M111.792 115.7l-3.592 3.7 3.7-3.592c3.436-3.336 3.882-3.808 3.592-3.808-.06 0-1.725 1.665-3.7 3.7m167.808-1.1c.746.77 1.447 1.4 1.557 1.4.11 0-.411-.63-1.157-1.4-.746-.77-1.447-1.4-1.557-1.4-.11 0 .411.63 1.157 1.4m-165.025 4.7-1.175 1.3 1.3-1.175c1.212-1.095 1.484-1.425 1.175-1.425-.069 0-.654.585-1.3 1.3M292 120.6c.746.77 1.447 1.4 1.557 1.4.11 0-.411-.63-1.157-1.4-.746-.77-1.447-1.4-1.557-1.4-.11 0 .411.63 1.157 1.4m-5.4 1c1.083 1.1 2.06 2 2.17 2 .11 0-.687-.9-1.77-2s-2.06-2-2.17-2c-.11 0 .687.9 1.77 2m-125.751 2.6c-.033.44-.153 1.25-.266 1.8l-.206 1 .429-.981c.236-.54.355-1.35.266-1.8-.159-.798-.165-.798-.223-.019m128.751.725c0 .069.585.654 1.3 1.3l1.3 1.175-1.175-1.3c-1.095-1.212-1.425-1.484-1.425-1.175m-44.624 4.721c-.716 1.384-.347 2.154.882 1.838.611-.157.583-.199-.158-.238-1.067-.055-1.081-.135-.29-1.666.336-.649.521-1.18.411-1.18-.11 0-.49.561-.845 1.246m-89.176 1.37-2 .54 1.8-.229c.99-.126 2.16-.375 2.6-.553 1.247-.504-.158-.362-2.4.242M148.4 133c-.77.297-1.13.539-.8.539.33 0 1.23-.242 2-.539.77-.297 1.13-.539.8-.539-.33 0-1.23.242-2 .539m102.4 0c1.826.703 2.545.693 1-.014-.66-.303-1.47-.544-1.8-.538-.33.007.03.255.8.552m-125.825 2.7L123.8 137l1.3-1.175c1.212-1.095 1.484-1.425 1.175-1.425-.069 0-.654.585-1.3 1.3m17.825-.669-1 .602 1-.265c1.452-.384 2.403-.944 1.6-.942-.33.001-1.05.273-1.6.605M256 135c.55.314 1.18.572 1.4.572.22 0-.05-.258-.6-.572-.55-.314-1.18-.572-1.4-.572-.22 0 .05.258.6.572m-16.154 2c-.355.55-.937 1.495-1.293 2.1l-.648 1.1.805-.974c.95-1.15 2.211-3.226 1.959-3.226-.098 0-.468.45-.823 1m19.787-.447c.408.374 5.967 3.036 5.967 2.857 0-.223-5.422-3.01-5.857-3.01-.152 0-.201.069-.11.153M155.2 137.974c-1.21.412-3.33 1.061-4.711 1.443-1.381.382-2.606.849-2.723 1.039-.117.189-.506.344-.863.344-.358 0-1.382.334-2.277.741-.894.408-3.426 1.531-5.626 2.495-4.474 1.962-11 6.108-11 6.99 0 .315-.18.574-.4.574-.22 0-.4.211-.4.47 0 .258.417.078.926-.4.509-.479 1.214-.87 1.567-.87s1.403-.732 2.334-1.626c1.165-1.12 1.786-1.477 1.99-1.146.207.335.434.224.752-.37.25-.468.585-.814.743-.769.158.045.697-.146 1.196-.423.5-.276 1.085-.394 1.3-.261.216.133.392.052.392-.181 0-.233.289-.424.643-.424.407 0 .558-.22.412-.6-.126-.33-.056-.6.158-.6.213 0 .387.191.387.424 0 .233.183.31.407.172.223-.138.315-.399.203-.58-.281-.455 2.326-.897 3.521-.598.736.185 1.151.015 1.673-.686.382-.513.595-.635.473-.271-.201.598.06.793 1.723 1.291.11.033.425.203.7.378.798.506.578 1.149-.297.871-.613-.195-.742-.108-.558.373.132.344.38.626.551.626.171 0 .405.36.52.8.152.583.012.8-.516.8-.952 0-.614 1.404.671 2.79 1.035 1.116 1.18 1.841.429 2.146-.387.157-.375.291.051.589.303.212.434.576.29.809-.16.259.045.365.525.273.553-.107.722.018.568.42-.158.411.103.582.923.605.629.017.917.122.641.234-.277.111-.377.412-.224.668.154.256-.033.213-.414-.097-.545-.442-.798-.459-1.177-.076-.379.381-.32.424.272.199.549-.209.704-.134.568.276-.102.31-.577.622-1.054.692-.478.07-.869.289-.869.487s.315.267.7.153c.59-.174.58-.125-.065.313-1.441.978-2.235 1.919-2.21 2.619.021.563.093.534.369-.151.468-1.158 2.508-2.549 3.739-2.549 1.153 0 2.262-.94 2.277-1.929.005-.369.115-1.613.244-2.764.22-1.959.171-2.117-.757-2.47-3.735-1.42-3.466-4.965.503-6.636.99-.417 1.846-.784 1.902-.815.122-.068 1.675-5.851 1.689-6.286.013-.424-.308-.369-2.791.474M278 139.4c.746.77 1.447 1.4 1.557 1.4.11 0-.411-.63-1.157-1.4-.746-.77-1.447-1.4-1.557-1.4-.11 0 .411.63 1.157 1.4m-177.748.516c-.108.174.421.245 1.176.157.755-.088 1.372-.231 1.372-.317 0-.301-2.355-.153-2.548.16m197.348-.025c.55.1 1.36.481 1.8.845.794.659.794.657.038-.236-.465-.549-1.167-.879-1.8-.846l-1.038.055 1 .182m-60.755 1.646c-.946 1.328-.516 2.092 1.135 2.017.806-.037.852-.084.22-.224-1.854-.41-1.892-.477-1.001-1.728.47-.661.765-1.202.655-1.202-.11 0-.564.512-1.009 1.137m-118.67.963L117 143.8l1.3-1.175c1.212-1.095 1.484-1.425 1.175-1.425-.069 0-.654.585-1.3 1.3m18.925.529c-1.495.811-1.404 1.149.1.371.66-.341 1.2-.706 1.2-.81 0-.258-.043-.243-1.3.439m148.3.171c-.504.217-.578.344-.2.344.33 0 .96-.155 1.4-.344.504-.217.578-.344.2-.344-.33 0-.96.155-1.4.344m-12 1.657c.88.729 2.784 2.41 4.23 3.734l2.63 2.409-2.83-2.806c-1.556-1.543-3.46-3.224-4.23-3.734-1.265-.839-1.246-.801.2.397M124.181 146.1l-1.581 1.7 1.7-1.581c1.581-1.471 1.884-1.819 1.581-1.819-.065 0-.83.765-1.7 1.7m118.82-1.299c.135.22.481.399.769.399 2.487 0 3.435 3.773 1.34 5.331-1.056.785-1.263.794-6.664.287-5.932-.556-7.401-.433-7.819.656-.232.604-.169.597.551-.054.703-.636 1.236-.701 3.918-.476 10.301.861 9.529.886 10.67-.345 1.321-1.425 1.378-3.338.134-4.503-.986-.923-3.312-1.962-2.899-1.295m-95.769 2.022c-.018.342-.527.831-1.132 1.085-1.001.42-1.01.441-.1.232 1.283-.295 1.744-.734 1.477-1.405-.159-.396-.222-.374-.245.088m123.151 2.261c1.439 1.367 2.748 2.492 2.908 2.5.16.009-.56-.741-1.6-1.667-3.33-2.964-4.006-3.394-1.308-.833m-188.258.616c-.844.933-1.872 3.486-1.538 3.82.206.206.817-1.223 1.077-2.52.117-.581.431-.77 1.148-.69.544.061 1.303.117 1.688.125.809.017.809.017.359 1.239-.817 2.215-.868 3.403-.075 1.726 1.623-3.431-.38-6.219-2.659-3.7m232.375-.466c-1.317.498-1.269 2.587.068 2.922 1.135.285 2.232-.053 2.232-.688 0-.829 1.088 1.113 2.601 4.645.828 1.933 1.569 3.451 1.646 3.373.077-.077-.47-1.586-1.215-3.354-2.772-6.572-3.545-7.572-5.332-6.898m-164.278.401c.147.239.042.644-.236.9-.386.356-.437.348-.221-.035.155-.275.092-.5-.141-.5-.233 0-.424-.18-.424-.4 0-.534.684-.511 1.022.035m117.164-.013c-.242.392 3.311 4.554 4.542 5.319.877.546 1.507-.366.846-1.224-3.326-4.317-4.636-5.312-5.388-4.095m2.233.878c1.854 1.962 3.183 3.851 2.852 4.056-.315.195-4.871-4.244-4.871-4.745 0-.546 1.258-.116 2.019.689M125.2 151.8c-.972.99-1.677 1.8-1.567 1.8.11 0 .995-.81 1.967-1.8.972-.99 1.677-1.8 1.567-1.8-.11 0-.995.81-1.967 1.8m104.084 1.7c-1.679 2.395-2.877 4.5-2.563 4.5.182 0 .633-.585 1.002-1.3.37-.715 1.126-1.975 1.68-2.8 1.154-1.716 1.049-2.067-.119-.4m45.559-.099c.574.66 1.517 2.009 2.096 2.999.58.99 1.055 1.652 1.057 1.471.008-.671-2.02-3.752-3.09-4.694l-1.106-.974 1.043 1.198m40.024 1.419c.234.672.5 1.147.59 1.056.199-.198-.556-2.276-.826-2.276-.104 0 .002.549.236 1.22m-235.613 1.142c-1.179 2.741-1.035 3.137.174.476.54-1.189.914-2.23.831-2.312-.082-.083-.535.744-1.005 1.836m203.174-1.362c0 .22.258.85.572 1.4.314.55.572.82.572.6 0-.22-.258-.85-.572-1.4-.314-.55-.572-.82-.572-.6M83.05 156.791c-.357.894-.64 1.847-.628 2.117.012.271.378-.387.814-1.461.436-1.074.718-2.026.628-2.116-.09-.09-.456.567-.814 1.46m217.743 3.109-4.593 4.7 4.7-4.593c4.366-4.267 4.882-4.807 4.593-4.807-.058 0-2.173 2.115-4.7 4.7m-28.294-2.639c-.331.331-.342.684-.041 1.248 2.602 4.862-1.582 11.61-9.887 15.948-3.74 1.954-5.555 4.343-3.298 4.343.289 0 .282-.172-.023-.539-.585-.706.353-1.56 3.775-3.439 8.714-4.784 11.543-9.677 9.727-16.822-.101-.4.094-.558.588-.473.444.076.635-.044.477-.3-.341-.551-.743-.541-1.318.034m-24.992.629c.719.089 1.799.087 2.4-.004s.013-.164-1.307-.162c-1.32.002-1.812.077-1.093.166m5.414.92c.619.486 1.094 1.324 1.19 2.1l.161 1.29.064-1.225c.064-1.225-1.116-2.975-2.006-2.975-.241 0 .025.364.591.81m21.112-.736c-.018.151.161.781.399 1.4.237.619.587 2.206.777 3.526l.345 2.4-.114-2.4c-.09-1.905-1.274-6.048-1.407-4.926m42.423 1.126c0 .33.155.96.344 1.4.217.504.344.578.344.2 0-.33-.155-.96-.344-1.4-.217-.504-.344-.578-.344-.2m-37.783.8c.146.55.394 1.63.55 2.4.278 1.364.286 1.369.313.2.015-.66-.232-1.74-.55-2.4-.466-.968-.527-1.007-.313-.2m6.006 4.603c.045 2.888.269 5.288.53 5.694.405.631.423.621.172-.097-.154-.44-.253-2.51-.221-4.6.031-2.09-.081-4.292-.251-4.894-.178-.632-.276 1.017-.23 3.897M101.6 163c.746.77 1.447 1.4 1.557 1.4.11 0-.411-.63-1.157-1.4-.746-.77-1.447-1.4-1.557-1.4-.11 0 .411.63 1.157 1.4m17.32 1.4c0 1.21.075 1.705.167 1.1.091-.605.091-1.595 0-2.2-.092-.605-.167-.11-.167 1.1m133.665-.3c-.617.935-.865 1.489-.553 1.231.601-.497 2.132-2.931 1.844-2.931-.093 0-.674.765-1.291 1.7m-138.871.5c.003 1.1.081 1.503.173.895.092-.609.09-1.509-.005-2-.095-.492-.171.005-.168 1.105m208.742-1c0 .33.155.96.344 1.4.217.504.344.578.344.2 0-.33-.155-.96-.344-1.4-.217-.504-.344-.578-.344-.2m-171.418 1.069c.461.417.953 1.023 1.093 1.345.177.408.227.357.162-.166-.051-.414-.543-1.019-1.093-1.345-1-.593-1-.593-.162.166M279.26 166.2c-.034.66-.593 2.325-1.243 3.7-.651 1.375-1.091 2.5-.979 2.5.55 0 2.603-5.264 2.45-6.28l-.168-1.12-.06 1.2m-28.349.3c-.782 1.011-1.048 1.632-.575 1.34.474-.293 1.421-1.84 1.127-1.84-.091 0-.339.225-.552.5m-46.665 2.886c-.355.542-.646 1.082-.646 1.2 0 .118 6.465.214 14.367.214 11.119 0 14.412.113 14.568.5.121.299.215.218.233-.2.03-.654-.909-.7-14.377-.7h-14.409l.655-1c.36-.55.565-1 .455-1-.11 0-.491.444-.846.986m44.497.314c-.647.922-.707 1.135-.206.733.713-.573 1.65-2.033 1.304-2.033-.102 0-.597.585-1.098 1.3m-97.943 1.5c-.282 1.331-.422 2.511-.311 2.622.111.111.419-.901.684-2.249.266-1.348.406-2.528.312-2.622-.095-.094-.403.918-.685 2.249m173.668.2c-.006.44.143 1.16.332 1.6.438 1.019.438-.032 0-1.4-.257-.804-.323-.843-.332-.2m-78.641 2.643c-1.04 1.564-1.695 2.722-1.454 2.574.24-.149 1.029-1.203 1.754-2.343 1.833-2.883 1.942-3.074 1.755-3.074-.09 0-1.015 1.28-2.055 2.843m40.424-1.269c.376 1.465 1.32 3.512 1.304 2.826-.008-.33-.361-1.32-.784-2.2-.423-.88-.657-1.162-.52-.626m-44.166 6.726c-1.883 2.801-2.18 3.3-1.967 3.3.09 0 1.002-1.26 2.027-2.8 1.024-1.54 1.777-2.8 1.673-2.8-.103 0-.884 1.035-1.733 2.3m45.995-1.7c0 .44.144 1.25.32 1.8.254.792.32.833.32.2 0-.44-.144-1.25-.32-1.8-.254-.792-.32-.833-.32-.2m-138.897.3c-.01.275-.168 1.279-.353 2.232-.184.953-.197 1.583-.029 1.4.374-.407.936-4.132.624-4.132-.124 0-.233.225-.242.5M97 180.8l-1.2.305 1.076.048c.592.026 1.188-.133 1.324-.353.136-.22.192-.379.124-.353-.068.026-.664.185-1.324.353m182.003-.005c-.14.227.02.294.374.159.407-.157.747.084.995.704.22.55.388.684.403.322.046-1.127-1.266-2.004-1.772-1.185m9.865.605c-.006.44.143 1.16.332 1.6.438 1.019.438-.032 0-1.4-.257-.804-.323-.843-.332-.2m15.437.083c.497.096 1.217.092 1.6-.008.382-.1-.025-.179-.905-.174-.88.004-1.193.086-.695.182M120 182.125c0 .069.585.654 1.3 1.3l1.3 1.175-1.175-1.3c-1.095-1.212-1.425-1.484-1.425-1.175m156.575 1.575L275.4 185l1.3-1.175c.715-.646 1.3-1.231 1.3-1.3 0-.309-.33-.037-1.425 1.175m3.945 1.5c0 1.21.075 1.705.167 1.1.091-.605.091-1.595 0-2.2-.092-.605-.167-.11-.167 1.1M78.894 199.038l-.094 12.838.9.762c.898.76.898.76.206-.063-.622-.739-.706-2.158-.806-13.6l-.112-12.775-.094 12.838m198.889-11.102c-.666.585-1.834 1.571-2.597 2.19-1.091.886-.978.848.532-.181 1.055-.719 2.112-1.54 2.349-1.826.891-1.073 1.109-.403 1.235 3.781l.128 4.3.085-4.476c.095-5.024-.026-5.289-1.732-3.788M119.714 190.6c.003 1.1.081 1.503.173.895.092-.609.09-1.509-.005-2-.095-.492-.171.005-.168 1.105m.945 1.316c-.139 1.476-.255 4.101-.256 5.833-.003 2.933-.051 3.113-.703 2.622-.664-.5-.664-.488-.01.227 1.115 1.218 1.403-.285 1.48-7.741.025-2.444.132-2.904.63-2.712.848.325.746-.038-.144-.515-.681-.364-.765-.172-.997 2.286m169.855-.516c.003 1.1.081 1.503.173.895.092-.609.09-1.509-.005-2-.095-.492-.171.005-.168 1.105m-18.752 1.154c-.117.305-.152 1.34-.079 2.3.13 1.69.14 1.672.326-.555.194-2.334.136-2.743-.247-1.745M108.554 197.6c0 2.75.064 3.875.142 2.5.078-1.375.078-3.625 0-5s-.142-.25-.142 2.5m182.394 1.2c0 2.31.066 3.255.147 2.1.081-1.155.081-3.045 0-4.2-.081-1.155-.147-.21-.147 2.1m-53.448-1.718c.495.096 1.305.096 1.8 0 .495-.095.09-.173-.9-.173s-1.395.078-.9.173m-6.009.407c.71.088 1.97.09 2.8.003.83-.087.249-.159-1.291-.161-1.54-.002-2.219.069-1.509.158M278.752 199c-.239 2.269-.212 2.419.307 1.71.205-.281.267-1.23.138-2.11l-.235-1.6-.21 2m41.407 7.4c0 3.19.062 4.495.138 2.9.076-1.595.076-4.205 0-5.8-.076-1.595-.138-.29-.138 2.9M122.4 202.255c0 .213.675 1.008 1.5 1.767l1.5 1.378-1.4-1.596c-.77-.877-1.445-1.672-1.5-1.766-.055-.094-.1.003-.1.217m105.507.035c.719.089 1.799.087 2.4-.004s.013-.164-1.307-.162c-1.32.002-1.812.077-1.093.166m62.359 4.078c-.147 1.41-.192 2.639-.1 2.732.248.247.749-4.154.544-4.77-.097-.29-.296.627-.444 2.038m-37.961 2.315c.497.096 1.217.092 1.6-.008.382-.1-.025-.179-.905-.174-.88.004-1.193.086-.695.182M117.762 215.8c0 3.52.062 4.906.136 3.081.074-1.825.074-4.705-.001-6.4-.075-1.695-.136-.201-.135 3.319m159.619-4.1-1.581 1.7 1.7-1.581c1.581-1.471 1.884-1.819 1.581-1.819-.065 0-.83.765-1.7 1.7m3.169 2.5c.001 2.42.066 3.358.146 2.085.08-1.273.079-3.253-.002-4.4-.08-1.147-.145-.105-.144 2.315m-75.483-1.933c-1.243 1.243-.305 1.333 12.833 1.239l13.1-.095-12.941-.111c-11.254-.097-12.911-.189-12.712-.706.245-.639.146-.754-.28-.327M90.5 215.076c.385.1 1.015.1 1.4 0 .385-.101.07-.183-.7-.183s-1.085.082-.7.183m3.805.407c.497.096 1.217.092 1.6-.008.382-.1-.025-.179-.905-.174-.88.004-1.193.086-.695.182m209.6 0c.497.096 1.217.092 1.6-.008.382-.1-.025-.179-.905-.174-.88.004-1.193.086-.695.182M288.31 216.6c-.14.66-.359 1.56-.488 2-.128.44.048.194.392-.547.345-.741.564-1.641.489-2-.08-.378-.246-.147-.393.547m-11.71 1.46c-1.1.878-2.591 1.89-3.312 2.248-1.435.713-1.835 1.659-1.581 3.737.137 1.128.176 1.042.229-.514.063-1.846.098-1.892 2.812-3.696 1.511-1.005 2.973-2.099 3.249-2.431.978-1.179 1.179-.549 1.304 4.096l.127 4.7.086-4.9c.099-5.629.091-5.638-2.914-3.24m-157.044-.763c-.102 1.157.152 2.519.511 2.743.222.138.332 2.128.259 4.701-.069 2.453 0 4.46.153 4.46.713-.002.54-11.523-.179-11.971-.526-.328-.711-.312-.744.067m-20.7 2.303c0 .33.155.96.344 1.4.217.504.344.578.344.2 0-.33-.155-.96-.344-1.4-.217-.504-.344-.578-.344-.2m188.298.7c-.025.385-.02 1.78.011 3.1.032 1.32-.211 3.382-.539 4.581-.684 2.502-.527 3.269.196.957.461-1.474.931-9.338.558-9.338-.099 0-.201.315-.226.7M78.48 223c0 .44.144 1.25.32 1.8.254.792.32.833.32.2 0-.44-.144-1.25-.32-1.8-.254-.792-.32-.833-.32-.2m190.563 1.567c.133.348.418.633.633.633.526 0 .197-.909-.401-1.108-.293-.098-.382.085-.232.475m9.786 2.433c-.022.44-.151 1.25-.287 1.8-.224.906-.186.943.396.395.494-.465.561-.882.287-1.8-.249-.836-.368-.954-.396-.395m-9.745 2.6c-.115.439-.046.9.154 1.023.199.123.362-.236.362-.799 0-1.226-.228-1.325-.516-.224m49.566.45c-.141.703-.181 1.352-.091 1.442.091.091.289-.401.441-1.092.152-.691.193-1.341.091-1.442-.102-.102-.3.389-.441 1.092m-33.85 2.35c-.449.88-.726 1.6-.616 1.6.11 0 .567-.72 1.016-1.6.449-.88.726-1.6.616-1.6-.11 0-.567.72-1.016 1.6m-27.091.4c0 .99.078 1.395.173.9.096-.495.096-1.305 0-1.8-.095-.495-.173-.09-.173.9m-154.477.394c-.018.327-2.326 2.937-5.13 5.8l-5.098 5.206 5.347-5.251c3.309-3.249 5.265-5.461 5.13-5.8-.174-.438-.224-.428-.249.045M77.256 235.2c0 .33.155.96.344 1.4.217.504.344.578.344.2 0-.33-.155-.96-.344-1.4-.217-.504-.344-.578-.344-.2m179.324.832c-.147.238-.833.778-1.524 1.199-.691.421-1.034.767-.762.768.512.001 3.319-2.367 2.83-2.387-.152-.007-.397.183-.544.42m24.675 1.368c-.701.77-1.135 1.4-.965 1.4.171 0 .813-.63 1.427-1.4 1.438-1.802 1.178-1.802-.462 0m-163.655-.075c0 .069.585.654 1.3 1.3l1.3 1.175-1.175-1.3c-1.095-1.212-1.425-1.484-1.425-1.175M82.639 238.8c.145.77.527 1.76.849 2.2.713.973.435-.224-.551-2.374l-.562-1.226.264 1.4m218.161.2c.746.77 1.447 1.4 1.557 1.4.11 0-.411-.63-1.157-1.4-.746-.77-1.447-1.4-1.557-1.4-.11 0 .411.63 1.157 1.4m-222.37-.4c-.001.22.345 1.12.77 2 .425.88.771 1.33.77 1-.002-.33-.348-1.23-.77-2-.422-.77-.768-1.22-.77-1m241.218 1.272c-1.595 4.569-3.648 7.78-3.648 5.704 0-.233.16-.325.355-.204.195.12.445-.129.556-.554.156-.596-.057-.83-.927-1.022l-1.13-.248.573-1.624c1.125-3.189.518-2.46-.839 1.008-1.07 2.734-1.29 3.705-.971 4.3.47.879 1.268 1.055.943.208-.279-.726.635-1.296 1.036-.646.239.386.35.375.501-.049.106-.3.334-.414.505-.255.172.16.061.594-.245.965-.48.582-.475.648.042.477.59-.195 4.122-8.57 3.898-9.242-.064-.191-.356.341-.649 1.182m-42.448 1.377c-1.394 1.222-1.395 1.223-.112.37.708-.471 1.394-1.028 1.524-1.238.385-.624.065-.427-1.412.868m27.183 1.251c.981 1.045 1.836 1.9 1.9 1.9.301 0-.017-.359-1.783-2.017l-1.9-1.783 1.783 1.9m-220.374-.014c-.005.378.292 1.318.66 2.09.556 1.165.586 1.585.178 2.481-.437.96-.423 1.021.131.561.836-.694.783-1.976-.169-4.074-.435-.959-.795-1.435-.8-1.058m-3.921.348c.123.311.542 1.376.931 2.366.813 2.069 1.307 2.8 1.892 2.8.227 0 .14-.315-.194-.7-.334-.385-.929-1.561-1.322-2.613-.392-1.052-.898-2.027-1.122-2.166-.234-.144-.313-.011-.185.313m192.824 1.065c-1.368.802-2.425 1.521-2.349 1.597.164.165 5.037-2.655 5.037-2.915 0-.262.027-.275-2.688 1.318m-39.007 2.784c.497.096 1.217.092 1.6-.008.382-.1-.025-.179-.905-.174-.88.004-1.193.086-.695.182m-5.005.404c.605.091 1.595.091 2.2 0 .605-.092.11-.167-1.1-.167-1.21 0-1.705.075-1.1.167m52.27 7.213-.97 1.1 1.2-1c.66-.55 1.275-1.045 1.367-1.1.091-.055-.012-.1-.231-.1-.218 0-.833.495-1.366 1.1M118 254.125c0 .069.585.654 1.3 1.3l1.3 1.175-1.175-1.3c-1.095-1.212-1.425-1.484-1.425-1.175m160.575 2.775-1.175 1.3 1.3-1.175c1.212-1.095 1.484-1.425 1.175-1.425-.069 0-.654.585-1.3 1.3m-54.075.187c.605.091 1.595.091 2.2 0 .605-.092.11-.167-1.1-.167-1.21 0-1.705.075-1.1.167m-11.138 1.013c-.758.895-.757.896.048.219.561-.471 1.731-.723 3.8-.82l2.99-.14-3.038-.08c-2.711-.07-3.12.018-3.8.821m-74.442.4c-2.643 2.901-2.136 7.122 1.08 9.003.867.507.852.467-.111-.301-2.944-2.345-3.048-6.984-.202-8.978.49-.343.702-.624.472-.624-.231 0-.788.405-1.239.9m110.307.471c-.502.535-.848 1.14-.77 1.346.079.206.54-.231 1.025-.971 1.045-1.597.981-1.691-.255-.375m9.816 2.493c.305 1.591-.402 3.777-1.763 5.446-.954 1.17-.964 1.215-.109.49 1.841-1.563 2.952-5.184 2.023-6.6-.281-.429-.324-.24-.151.664m12.332 2.636-1.175 1.3 1.3-1.175c.715-.646 1.3-1.231 1.3-1.3 0-.309-.33-.037-1.425 1.175m-143.775-.375c0 .069.585.654 1.3 1.3l1.3 1.175-1.175-1.3c-1.095-1.212-1.425-1.484-1.425-1.175m18.575 3.175L145 268.2l1.3-1.175c1.212-1.095 1.484-1.425 1.175-1.425-.069 0-.654.585-1.3 1.3m121.403.6L266.2 269l1.5-1.378c1.396-1.284 1.684-1.622 1.378-1.622-.066 0-.741.675-1.5 1.5M103.2 268.691c.55.1 1.36.481 1.8.845.794.659.794.657.038-.236-.465-.549-1.167-.879-1.8-.846l-1.038.055 1 .182m149.7-.015c.385.1 1.015.1 1.4 0 .385-.101.07-.183-.7-.183s-1.085.082-.7.183m43.5.017c.55.101 1.27.391 1.6.645.522.402.529.371.051-.238-.303-.386-1.021-.676-1.6-.646l-1.051.055 1 .184m-3.825 3.007L291.4 273l1.3-1.175c1.212-1.095 1.484-1.425 1.175-1.425-.069 0-.654.585-1.3 1.3M108 273.325c0 .069.585.654 1.3 1.3l1.3 1.175-1.175-1.3c-1.095-1.212-1.425-1.484-1.425-1.175m95.105.558c.497.096 1.217.092 1.6-.008.382-.1-.025-.179-.905-.174-.88.004-1.193.086-.695.182M105.8 277.6c.859.88 1.652 1.6 1.762 1.6.11 0-.503-.72-1.362-1.6-.859-.88-1.652-1.6-1.762-1.6-.11 0 .503.72 1.362 1.6m131.2-.586c-1.005.484-1.037.539-.2.337.55-.132 1.171-.401 1.38-.596.518-.484.234-.422-1.18.259m49.975 1.086-1.175 1.3 1.3-1.175c.715-.646 1.3-1.231 1.3-1.3 0-.309-.33-.037-1.425 1.175M115.8 281.6c2.412 2.42 4.476 4.4 4.586 4.4.11 0-1.774-1.98-4.186-4.4-2.412-2.42-4.476-4.4-4.586-4.4-.11 0 1.774 1.98 4.186 4.4m114.8-2.557-1.6.559 1.6-.238c1.665-.247 3.413-.97 2.2-.91-.33.016-1.32.281-2.2.589m-9.2 1.965c-1.431.301-1.915.507-1.2.51.66.003 2.1-.226 3.2-.509 2.57-.66 1.136-.661-2-.001M112.793 284.9c2.306 2.365 4.241 4.3 4.3 4.3.289 0-.199-.513-4.193-4.407l-4.3-4.193 4.193 4.3m88.722-2.201-5.885.122-1.838 2.39c-1.011 1.314-1.744 2.389-1.628 2.389.115 0 .958-.99 1.871-2.2l1.661-2.2 5.252-.04c2.889-.022 6.782-.174 8.652-.338l3.4-.298-2.8.026c-1.54.015-5.448.082-8.685.149m83.474 4.201-2.789 2.9 2.9-2.789c2.694-2.591 3.083-3.011 2.789-3.011-.061 0-1.366 1.305-2.9 2.9m-137.198 2.4-3.191 3.3 3.3-3.191c3.065-2.963 3.482-3.409 3.191-3.409-.061 0-1.546 1.485-3.3 3.3M250.8 289c1.417 1.43 2.667 2.6 2.777 2.6.11 0-.96-1.17-2.377-2.6-1.417-1.43-2.667-2.6-2.777-2.6-.11 0 .96 1.17 2.377 2.6m-87.771 4.029c-.148.586-.191 1.143-.097 1.237.095.094.292-.308.439-.895.148-.586.191-1.143.097-1.237-.095-.094-.292.308-.439.895m48.671 2.047c.385.1 1.015.1 1.4 0 .385-.101.07-.183-.7-.183s-1.085.082-.7.183m-18.6.406c.495.096 1.305.096 1.8 0 .495-.095.09-.173-.9-.173s-1.395.078-.9.173m13.605.001c.497.096 1.217.092 1.6-.008.382-.1-.025-.179-.905-.174-.88.004-1.193.086-.695.182m61.495 5.152-1.2 1.031 1.3-.86c.715-.473 1.3-.938 1.3-1.033 0-.3-.169-.195-1.4.862m-68.412 5.565c-1.335 3.397-1.787 4.695-1.782 5.115.011.861.782-.632 1.246-2.415.735-2.822 1.148-1.932 1.148 2.476 0 2.297.135 4.26.3 4.363.384.238.148-7.55-.277-9.139-.288-1.077-.353-1.118-.635-.4m37.412 4.834c-1.31.536-1.323.558-.2.341.66-.127 1.371-.399 1.58-.603.479-.469.341-.443-1.38.262m-40.302 3.722c-.969 2.984-1.11 3.791-.498 2.844.523-.809 1.674-4.778 1.52-5.241-.068-.204-.528.875-1.022 2.397M230.2 313.2c-.504.217-.578.344-.2.344.33 0 .96-.155 1.4-.344.504-.217.578-.344.2-.344-.33 0-.96.155-1.4.344m-54.733 1.867c-.147.146-.264.461-.261.7.004.284.108.274.301-.031.163-.255.835-.543 1.494-.64l1.199-.176-1.233-.06c-.679-.033-1.354.06-1.5.207m27.871 2.416c-.838 2.029-1.421 4.167-1.197 4.391.121.121.344-.296.496-.927.151-.631.531-1.654.843-2.274.313-.62.512-1.392.444-1.717-.076-.361-.303-.157-.586.527m-7.732 1.417c-.005.53.323.7 1.348.7h1.353l.157 5.377c.135 4.588.41 6.499.836 5.79.055-.092.01-2.687-.1-5.767l-.2-5.6-1.397-.133c-.768-.072-1.53-.342-1.693-.6-.195-.306-.3-.226-.304.233m-10.706 2.176c.385.1 1.015.1 1.4 0 .385-.101.07-.183-.7-.183s-1.085.082-.7.183m16.496 2.13c-.346.56-1.385 4.939-1.212 5.111.067.068.495-1.095.949-2.584.786-2.572.886-3.534.263-2.527"/>
  </g>
</svg>
